<svg width="25" height="24" viewBox="0 0 25 24" fill="none" xmlns="http://www.w3.org/2000/svg">
<path d="M22.7109 16.19C22.7109 19.83 20.5409 22 16.9009 22H15.7109C15.1609 22 14.7109 21.55 14.7109 21V15.23C14.7109 14.96 14.9309 14.73 15.2009 14.73L16.9609 14.7C17.1009 14.69 17.2209 14.59 17.2509 14.45L17.601 12.54C17.631 12.36 17.4909 12.19 17.3009 12.19L15.1709 12.22C14.8909 12.22 14.6709 12 14.6609 11.73L14.6209 9.28C14.6209 9.12 14.7509 8.98001 14.9209 8.98001L17.3209 8.94C17.4909 8.94 17.6209 8.81001 17.6209 8.64001L17.5809 6.23999C17.5809 6.06999 17.4509 5.94 17.2809 5.94L14.5809 5.98001C12.9209 6.01001 11.601 7.37 11.631 9.03L11.6809 11.78C11.6909 12.06 11.4709 12.28 11.1909 12.29L9.99094 12.31C9.82094 12.31 9.69095 12.44 9.69095 12.61L9.72095 14.51C9.72095 14.68 9.85093 14.81 10.0209 14.81L11.2209 14.79C11.5009 14.79 11.7209 15.01 11.7309 15.28L11.8209 20.98C11.8309 21.54 11.3809 22 10.8209 22H8.52094C4.88093 22 2.71094 19.83 2.71094 16.18V7.81C2.71094 4.17 4.88093 2 8.52094 2H16.9009C20.5409 2 22.7109 4.17 22.7109 7.81V16.19Z" fill="#2C2C2C"/>
</svg>
