<svg width="20" height="20" viewBox="0 0 20 20" fill="none" xmlns="http://www.w3.org/2000/svg">
<path d="M0.540428 9.68246C-0.206023 10.0741 -0.175056 10.6476 0.607525 10.9573L2.92623 11.8747C3.70946 12.1857 4.89462 12.016 5.55849 11.4979L15.6275 3.5573C16.2895 3.03665 16.3604 3.11343 15.7856 3.72891L7.82559 12.2489C7.24882 12.8625 7.41914 13.616 8.20494 13.9199L8.47656 14.0257C9.26236 14.3296 10.543 14.8399 11.3237 15.1573L13.8953 16.2044C14.6766 16.5218 15.5114 16.1476 15.7333 15.3347L19.6527 0.928264C19.874 0.115361 19.4443 -0.229801 18.6978 0.161167L0.540428 9.68246Z" fill="black"/>
<path d="M6.90372 19.114C6.85791 19.2515 8.48953 16.7515 8.48953 16.7515C8.95082 16.0469 8.68888 15.2063 7.90953 14.8876L6.13017 14.1592C5.35082 13.8405 4.97727 14.2147 5.29985 14.9934C5.29985 14.9934 6.95082 18.9728 6.90372 19.114Z" fill="black"/>
</svg>
