<svg width="25" height="20" viewBox="0 0 25 20" fill="none" xmlns="http://www.w3.org/2000/svg">
<path d="M22.2446 4.85788C22.2601 5.07106 22.2601 5.28424 22.2601 5.49882C22.2601 12 17.3105 19.4922 8.26529 19.4922C5.47847 19.4922 2.88929 18.6847 0.710938 17.2842C1.10764 17.3294 1.48882 17.3435 1.89964 17.3435C4.19941 17.3435 6.31423 16.5671 8.00553 15.2428C5.8427 15.1976 4.03141 13.7802 3.40741 11.8306C3.71094 11.8758 4.01588 11.9068 4.33353 11.9068C4.77682 11.9068 5.2187 11.8461 5.62953 11.7402C3.37635 11.2828 1.68506 9.30353 1.68506 6.91341C1.68506 6.89788 1.68506 6.86682 1.68506 6.85271C2.34011 7.21694 3.10106 7.44565 3.90858 7.47671C2.58435 6.59294 1.71611 5.08518 1.71611 3.38118C1.71611 2.46776 1.96035 1.62918 2.3867 0.897882C4.80788 3.88376 8.44741 5.83341 12.5288 6.04518C12.4512 5.67953 12.406 5.29835 12.406 4.91718C12.406 2.208 14.5999 0 17.3246 0C18.7406 0 20.0196 0.592941 20.9189 1.55294C22.03 1.33976 23.0945 0.928941 24.0403 0.365647C23.6747 1.50776 22.8982 2.46776 21.8775 3.07482C22.8686 2.96894 23.8272 2.69506 24.7109 2.31388C24.0403 3.288 23.2032 4.15765 22.2446 4.85788Z" fill="#2C2C2C"/>
</svg>
