<svg width="25" height="24" viewBox="0 0 25 24" fill="none" xmlns="http://www.w3.org/2000/svg">
<path d="M21.181 1.99999H4.241C4.05057 1.99734 3.8615 2.03223 3.68456 2.10267C3.50763 2.17311 3.3463 2.27771 3.20979 2.4105C3.07329 2.54329 2.96428 2.70167 2.88899 2.8766C2.8137 3.05152 2.7736 3.23957 2.771 3.42999V20.57C2.7736 20.7604 2.8137 20.9485 2.88899 21.1234C2.96428 21.2983 3.07329 21.4567 3.20979 21.5895C3.3463 21.7223 3.50763 21.8269 3.68456 21.8973C3.8615 21.9677 4.05057 22.0026 4.241 22H21.181C21.3714 22.0026 21.5605 21.9677 21.7374 21.8973C21.9144 21.8269 22.0757 21.7223 22.2122 21.5895C22.3487 21.4567 22.4577 21.2983 22.533 21.1234C22.6083 20.9485 22.6484 20.7604 22.651 20.57V3.42999C22.6484 3.23957 22.6083 3.05152 22.533 2.8766C22.4577 2.70167 22.3487 2.54329 22.2122 2.4105C22.0757 2.27771 21.9144 2.17311 21.7374 2.10267C21.5605 2.03223 21.3714 1.99734 21.181 1.99999ZM8.801 18.74H5.801V9.73999H8.801V18.74ZM7.301 8.47999C6.88726 8.47999 6.49047 8.31563 6.19791 8.02307C5.90535 7.73052 5.741 7.33372 5.741 6.91999C5.741 6.50625 5.90535 6.10946 6.19791 5.8169C6.49047 5.52434 6.88726 5.35999 7.301 5.35999C7.52069 5.33507 7.74317 5.35684 7.95387 5.42387C8.16457 5.4909 8.35874 5.60168 8.52365 5.74895C8.68857 5.89622 8.82052 6.07667 8.91087 6.27847C9.00121 6.48027 9.04791 6.69888 9.04791 6.91999C9.04791 7.14109 9.00121 7.3597 8.91087 7.5615C8.82052 7.76331 8.68857 7.94375 8.52365 8.09103C8.35874 8.2383 8.16457 8.34907 7.95387 8.4161C7.74317 8.48313 7.52069 8.5049 7.301 8.47999ZM19.621 18.74H16.621V13.91C16.621 12.7 16.191 11.91 15.101 11.91C14.7637 11.9125 14.4352 12.0183 14.1598 12.2132C13.8845 12.4081 13.6755 12.6827 13.561 13C13.4827 13.235 13.4488 13.4826 13.461 13.73V18.73H10.461V9.72999H13.461V11C13.7335 10.5271 14.1299 10.1375 14.6074 9.87319C15.085 9.60887 15.6256 9.47984 16.171 9.49999C18.171 9.49999 19.621 10.79 19.621 13.56V18.74Z" fill="#2C2C2C"/>
</svg>
