<svg width="45" height="44" viewBox="0 0 45 44" fill="none" xmlns="http://www.w3.org/2000/svg">
<g clip-path="url(#clip0_86_523)">
<path d="M29.6243 33.0745C27.7677 33.1956 26.0509 33.2728 24.4786 32.1878C23.004 31.1694 21.4438 30.2751 19.9226 29.3263L19.9993 29.1174L20.9021 29.0418C18.5068 24.4688 16.149 19.9624 13.7251 15.3411H17.4866L11.7465 0.0786877L11.8729 0C17.6642 7.05465 23.4584 14.1078 29.349 21.282H24.7975L29.6243 33.0745Z" fill="white"/>
<path d="M39.8332 33.3939C39.2313 36.5429 37.1399 38.1772 33.8629 38.2468C31.7263 38.2937 29.6845 37.82 27.6744 37.1512C27.4607 37.0801 27.2501 36.9999 27.0349 36.9348C26.9973 36.9242 26.9461 36.959 26.8363 36.9923C27.1944 38.1656 27.552 39.3368 27.9091 40.506C28.2612 41.6455 28.6178 42.7849 28.9714 43.9244L28.8043 44C27.7862 42.5463 26.7681 41.0911 25.75 39.6344C25.2595 38.9323 24.7344 38.2528 24.2935 37.5159C23.1966 35.7 21.7086 34.379 19.885 33.2441C14.6459 29.9876 10.1892 25.8414 6.87458 20.5617C5.55353 18.4583 4.48676 16.2248 4.37693 13.6766C4.24452 10.582 5.98235 8.57246 9.05778 8.31823C10.1953 8.2229 11.3538 8.3833 12.5033 8.40297C13.1248 8.41357 13.4603 8.70562 13.6122 9.30183C13.7304 9.67605 13.868 10.0438 14.0245 10.4035C13.2346 10.4489 12.4943 10.4443 11.7676 10.5412C8.966 10.9134 7.50653 12.8882 7.90374 15.7118C8.17156 17.62 8.92086 19.3436 9.93497 20.9567C13.5205 26.6419 18.4857 30.7926 24.3717 33.869C26.5369 35.0039 28.8073 35.8846 31.2478 36.1964C32.1916 36.3234 33.1467 36.3417 34.0946 36.2508C36.5742 35.9875 38.1676 34.1762 38.3932 31.5008C38.5588 29.5412 38.1119 27.6905 37.3641 25.9019C35.5119 21.4818 32.2905 18.2208 28.526 15.4304C28.2837 15.2518 28.031 15.0914 27.7827 14.9219C34.0193 18.1345 38.9319 22.4699 39.94 29.9346C40.0876 31.0861 40.0515 32.2538 39.8332 33.3939Z" fill="white"/>
<path d="M41.5951 36.2886C41.0664 36.515 40.5241 36.708 39.9716 36.8666C39.6947 36.9544 39.4028 36.9892 39.0101 37.0694C39.1471 36.9181 39.1877 36.8485 39.2479 36.8167C41.9261 35.4382 42.7837 32.7643 42.2571 29.8044C41.7877 27.1987 40.5749 24.9197 39.0974 22.7649C36.3891 18.8018 32.8803 15.6785 28.9864 12.9547C28.1243 12.3494 27.2681 11.7441 26.409 11.1312L26.6091 10.8785C29.0481 12.5355 31.5427 14.1184 33.914 15.8722C37.0346 18.1753 39.8542 20.8537 41.9772 24.1344C43.0342 25.749 43.914 27.474 44.6013 29.2793C45.7057 32.2619 44.4583 34.9539 41.5951 36.2886Z" fill="white"/>
<path d="M11.4005 28.0991L11.1657 28.3366C10.0779 27.347 8.95997 26.3876 7.90975 25.3586C5.23906 22.7423 2.82115 19.911 1.27591 16.4609C0.770614 15.3106 0.385376 14.1108 0.126381 12.8806C-0.401738 10.4367 0.746283 8.64355 3.16269 8.0761C4.0668 7.88669 4.99468 7.83973 5.91313 7.93688C5.80329 7.97622 5.69647 8.01859 5.58512 8.0534C3.1311 8.81001 2.07787 10.2461 2.09743 12.8473C2.11398 15.2412 3.05286 17.3537 4.14972 19.4086C5.83037 22.5592 8.22271 25.1332 10.752 27.5906C10.9588 27.7718 11.1753 27.9415 11.4005 28.0991Z" fill="white"/>
</g>
<defs>
<clipPath id="clip0_86_523">
<rect width="45" height="44" fill="white"/>
</clipPath>
</defs>
</svg>
