<svg width="662" height="44" viewBox="0 0 662 44" fill="none" xmlns="http://www.w3.org/2000/svg">
<g clip-path="url(#clip0_86_603)">
<path d="M54.5121 25.7744L54.5214 25.7824C54.5214 25.7824 54.5137 25.7792 54.5121 25.776V25.7744Z" fill="#2C2C2C"/>
<path d="M54.5121 25.7742C54.4626 25.6293 54.3522 25.4748 54.3826 25.3426C54.9874 22.1162 54.7164 18.7874 53.5974 15.7001C53.244 14.6953 53.2456 14.6937 52.0863 14.8832C54.0468 19.7434 54.082 24.5974 51.8816 29.3748C49.6812 34.1523 45.9953 37.3962 40.966 38.9377C33.2999 41.2867 24.5384 38.5173 21.1371 33.0455C21.1499 33.0455 21.1722 33.0264 21.177 33.0312C21.2666 33.1092 21.3577 33.1904 21.4409 33.2717C23.9099 35.7846 26.8891 36.9583 30.4247 36.6621C30.7399 36.6272 31.0497 36.5545 31.3474 36.4455C32.035 36.2114 32.721 35.9677 33.3959 35.697C34.293 35.3323 35.1933 34.9677 36.0632 34.5456C36.5317 34.3195 36.9091 33.8959 37.3856 33.7016C37.6637 33.5926 37.9134 33.4223 38.1161 33.2037C38.3188 32.985 38.4692 32.7235 38.5562 32.4388C38.6873 32.0661 38.7353 31.6648 38.8584 31.289C38.9176 31.1075 39.0183 30.8734 39.1782 30.8001C41.0742 29.8546 43.0946 29.1802 45.1797 28.7968C45.9425 28.6646 46.5805 28.6375 46.7948 29.7013C47.209 28.413 48.2004 28.19 49.3902 27.9957C48.2388 27.647 47.1514 27.483 46.8044 26.1803C46.7295 26.4995 46.5749 26.7947 46.3549 27.0386C46.1349 27.2824 45.8566 27.467 45.5459 27.5753C44.9238 27.8142 44.2922 28.0244 43.6701 28.2665C42.2581 28.8143 40.8493 29.3812 39.4405 29.9306C39.2262 30.015 39.0183 30.1185 38.8008 30.2125C38.6521 29.9529 38.5354 29.7507 38.4091 29.5277C38.0189 29.757 37.6687 29.9879 37.2977 30.1759C36.9267 30.3638 36.5621 30.4943 36.1943 30.6536L36.1047 30.4545C36.2119 30.3797 36.3126 30.2953 36.4246 30.2316C38.1237 29.2573 39.6858 28.0631 41.07 26.6803C42.1894 25.5497 43.3551 24.4508 44.5161 23.3584C45.1045 22.8042 45.7314 22.2898 46.379 21.7245C46.5549 22.0064 46.6813 22.2023 46.8188 22.4316C47.2665 21.4092 47.5976 21.2038 49.3662 20.8391C48.298 20.5206 47.1498 20.382 46.8076 19.0173C46.4254 20.4155 45.2277 20.5413 44.1195 20.8582L45.418 21.1369L37.5695 28.5308L36.8004 28.0244C36.8101 27.9694 36.8268 27.9159 36.8499 27.8651C36.9411 27.7584 37.0402 27.6613 37.1314 27.5562C38.7065 25.7312 39.8818 23.6992 40.3792 21.32C40.6286 20.1225 40.8589 19.8708 42.087 19.6399C42.2565 19.6097 42.4276 19.5922 42.7475 19.5476C41.5961 19.21 40.4735 19.0523 40.1041 17.7863C39.7011 18.7418 39.7012 18.7418 37.512 19.538C38.0169 19.6462 38.5143 19.7872 39.0007 19.96C39.1104 20.0233 39.2034 20.1115 39.2721 20.2176C39.3407 20.3236 39.3831 20.4444 39.3957 20.5699C39.2358 23.9317 37.7358 26.701 35.5115 29.1375C35.4015 29.2199 35.2782 29.2829 35.1469 29.3239L35.0957 29.2363L36.2535 27.8301C35.6058 27.467 35.1613 27.4925 34.632 27.9894C34.0531 28.5228 33.3047 28.8764 32.6299 29.3079L32.5627 29.2267C32.6075 29.1391 32.6507 29.0516 32.7594 28.835C32.3932 29.0436 32.1326 29.1774 31.8895 29.3366C31.4545 29.6185 31.0564 29.9736 30.5926 30.1934C29.8906 30.5262 29.2366 30.9132 28.7233 31.4897C28.0404 32.2572 27.7942 33.1554 28.1252 34.1523C28.4562 35.1492 29.0623 35.904 30.1928 36.0713C30.5718 36.1286 30.9492 36.1923 31.3282 36.2528C31.3282 36.3053 31.3362 36.3595 31.341 36.412C30.9668 36.4439 30.575 36.5617 30.2216 36.4901C28.8464 36.2146 28.114 35.2495 27.8022 33.9708C27.4903 32.692 28.0644 31.6903 29.0143 30.8654L29.4492 30.4928C28.5633 30.4928 27.7574 30.5294 26.9578 30.4928C24.8646 30.3781 23.1839 29.4911 22.0805 27.6884C21.498 26.7387 20.9777 25.7525 20.523 24.7359C20.1712 23.9397 19.9697 23.0893 19.6803 22.1879C18.8024 22.5845 17.9356 22.9842 17.0593 23.3664C16.7395 23.5065 16.6324 23.7072 16.6611 24.0575C16.861 26.459 17.3967 28.7745 18.4538 30.9498C18.8839 31.8368 19.3876 32.6872 19.869 33.5774L17.7469 33.7096C18.3169 33.8181 18.899 33.8486 19.4772 33.8004C19.9569 33.7542 20.2144 33.9755 20.5278 34.2988C21.5256 35.3244 22.4755 36.4407 23.6285 37.2624C28.7616 40.9252 34.5024 41.8631 40.5151 40.2468C47.6279 38.3358 52.1374 33.6331 54.1235 26.5513C54.1791 26.3839 54.2542 26.2235 54.3474 26.0736C54.4002 25.978 54.4546 25.8841 54.5073 25.7885L54.5169 25.7965C54.5169 25.7965 54.5169 25.7965 54.5169 25.7869L54.5121 25.7742ZM37.9485 31.3256C37.9693 31.4132 37.9885 31.5024 38.0093 31.59L36.4901 31.8559L36.447 31.6362L37.9485 31.3256ZM32.3692 34.587C31.3122 34.1698 30.671 32.7589 30.8836 31.3447C30.9028 32.6108 31.2946 33.7144 32.3692 34.587ZM28.744 32.3576C28.6193 33.4261 28.9935 34.3338 29.6795 35.1986C28.7904 34.7049 28.3347 33.3051 28.7472 32.356L28.744 32.3576ZM31.0899 34.0504C30.6566 33.3465 30.3575 32.598 30.4135 31.7429C30.4053 31.5506 30.3753 31.3599 30.324 31.1743L30.0377 31.4435C30.0505 31.8527 30.0377 32.2652 30.0825 32.6713C30.1877 33.5826 30.6057 34.4298 31.2658 35.0696C30.1465 34.2478 29.7147 33.1267 29.857 31.7572C29.5228 32.5646 29.7835 33.3274 30.0841 34.087L29.8746 34.1332C29.7003 33.4532 29.5244 32.7748 29.3709 32.1744C29.1998 33.1793 29.6379 34.0854 30.3479 34.9756C29.6347 34.5743 29.1758 33.5917 29.099 32.6442C29.0319 31.8066 29.3485 31.2237 30.0585 30.8081C30.3048 30.6616 30.34 30.6854 30.3575 31.0342C30.5015 30.8654 30.6454 30.6966 30.7877 30.5262L30.9396 30.5692C30.3543 32.0789 30.7477 33.3799 31.6256 34.6332C31.4287 34.4565 31.2493 34.2613 31.0899 34.0504Z" fill="#2C2C2C"/>
<path d="M53.4073 14.0264C53.5439 14.0305 53.6805 14.0166 53.8134 13.9849L53.4073 14.0264ZM52.5869 13.3702C50.7895 9.86677 48.1814 7.1229 44.6937 5.27561C41.3953 3.49521 37.6397 2.73191 33.9045 3.08276C24.9223 3.879 17.6031 10.9258 16.7492 19.9106C16.6085 21.3773 16.0392 21.9219 14.8063 22.4474C11.5057 23.8552 8.24994 25.3792 5.02453 26.9542C3.41263 27.7409 1.87268 28.7059 0.689341 30.0978C-0.430037 31.4259 -0.191769 32.2667 1.47451 32.7349C5.05332 33.7398 8.73767 33.7111 12.3964 33.7764C11.1172 33.6729 9.83786 33.6315 8.57776 33.4484C7.09652 33.2486 5.62859 32.9609 4.1818 32.5868C3.04803 32.2811 2.80497 31.4593 3.51657 30.5166C3.99433 29.8556 4.57522 29.2749 5.23722 28.7967C6.60126 27.8667 7.99728 26.9494 9.47646 26.2216C13.4503 24.2692 17.472 22.4124 21.6169 20.8358C29.024 18.0251 36.6278 16.0106 44.4842 14.9532C47.4074 14.5598 50.353 14.3305 53.4152 14.0232C52.9979 14.0072 52.7852 13.7524 52.5869 13.3702ZM19.4629 20.4855C19.4629 19.0284 19.3574 17.6588 19.4821 16.3116C19.8323 12.5421 22.0295 9.87473 24.9447 7.71213C26.9943 6.18351 29.3498 5.11112 31.8516 4.56753C34.3535 4.02393 36.9434 4.02181 39.4462 4.5613C41.9489 5.10078 44.3061 6.1693 46.3583 7.69455C48.4105 9.2198 50.1098 11.1662 51.3412 13.4021C51.4356 13.5741 51.5123 13.7556 51.6498 14.0391C40.6433 14.4567 29.7758 16.6332 19.4629 20.4855Z" fill="#2C2C2C"/>
<path d="M54.5121 25.7744H54.5521L54.5201 25.7872L54.5105 25.7792L54.5121 25.7744Z" fill="#2C2C2C"/>
<path d="M71.7553 18.076C71.3878 18.8304 70.8177 19.4687 70.1083 19.9201C68.3369 21.1164 66.4091 22.0649 64.3786 22.7388C61.4107 23.7325 58.4315 24.6944 55.4524 25.6547C55.1828 25.7214 54.9066 25.7582 54.6289 25.7646H54.5601C58.5355 24.2326 62.4405 22.5461 66.1537 20.4425C67.1371 19.8867 68.0422 19.2624 68.5763 18.213C69.1856 17.017 68.9665 15.95 67.716 15.4309C66.4805 14.936 65.1932 14.5808 63.8781 14.3719C62.4501 14.1314 60.9853 14.1091 59.7332 14.0088C62.6884 14.0247 65.8498 14.0215 68.9489 14.7254C69.7051 14.8999 70.4299 15.1889 71.0981 15.5822C72.0368 16.1507 72.2207 17.0711 71.7553 18.076Z" fill="#2C2C2C"/>
</g>
<path d="M100.99 30.6904C98.959 30.6904 97.1719 30.3779 95.6289 29.7529C94.0957 29.1279 92.8115 28.293 91.7764 27.248C90.7412 26.1934 89.96 25.0117 89.4326 23.7031C88.876 22.3457 88.5977 20.9102 88.5977 19.3965C88.5977 18.0586 88.8369 16.7402 89.3154 15.4414C89.7939 14.1426 90.541 12.9561 91.5566 11.8818C92.5723 10.8076 93.8516 9.95312 95.3945 9.31836C96.9375 8.67383 98.7441 8.35156 100.814 8.35156C103.529 8.35156 105.482 9.05469 106.674 10.4609C107.191 11.0762 107.45 11.7598 107.45 12.5117C107.45 13.1953 107.201 13.8105 106.703 14.3574C105.98 15.0996 104.97 15.4707 103.671 15.4707C103.183 15.4707 102.694 15.3975 102.206 15.251C101.415 15.0264 100.326 14.5918 98.9395 13.9473C98.5293 13.752 98.1143 13.5615 97.6943 13.376C96.1904 12.6631 94.8623 12.3066 93.71 12.3066H93.5342C93.3779 12.5215 93.2363 12.7461 93.1094 12.9805C92.0742 14.8262 91.5566 16.916 91.5566 19.25C91.5566 20.7148 91.7861 22.1455 92.2451 23.542C92.665 24.8115 93.2705 25.9541 94.0615 26.9697C94.8623 27.9756 95.8389 28.7812 96.9912 29.3867C98.1533 29.9824 99.4863 30.2803 100.99 30.2803C102.699 30.2803 104.359 29.8506 105.971 28.9912C107.641 28.1025 108.896 26.8184 109.735 25.1387L110.102 25.3145L110.014 25.5049C109.135 27.165 107.855 28.4443 106.176 29.3428C104.506 30.2412 102.777 30.6904 100.99 30.6904ZM103.671 15.0605C104.853 15.0605 105.761 14.7334 106.396 14.0791C106.825 13.6104 107.04 13.083 107.04 12.4971C107.04 12.3213 107.021 12.1406 106.981 11.9551C106.757 11.0566 106.176 10.334 105.238 9.78711C104.066 9.10352 102.592 8.76172 100.814 8.76172C99.8477 8.76172 98.9492 8.85449 98.1191 9.04004C97.2988 9.22559 96.5322 9.54785 95.8193 10.0068C95.1162 10.4658 94.4521 11.0957 93.8271 11.8965C94.1104 11.8965 94.3936 11.9209 94.6768 11.9697C95.7803 12.1748 96.8447 12.5166 97.8701 12.9951C99.6182 13.7959 100.639 14.2598 100.932 14.3867C102.006 14.8359 102.919 15.0605 103.671 15.0605ZM119.462 30.7051H118.803V30.6904C116.439 30.6123 114.521 29.7871 113.046 28.2148C111.669 26.6523 110.98 24.8311 110.98 22.751C110.98 20.6807 111.659 18.8594 113.017 17.2871C114.56 15.6367 116.601 14.8115 119.14 14.8115C121.669 14.8115 123.705 15.6367 125.248 17.2871C126.605 18.8594 127.289 20.6807 127.299 22.751C127.289 24.8311 126.596 26.6523 125.219 28.2148C123.744 29.7871 121.825 30.6123 119.462 30.6904V30.7051ZM119.14 30.2949C120.429 30.2559 121.474 29.9189 122.274 29.2842C123.085 28.6396 123.676 27.751 124.047 26.6182C124.418 25.4854 124.604 24.1816 124.604 22.707C124.604 21.291 124.403 20.0166 124.003 18.8838C123.603 17.751 122.997 16.8574 122.187 16.2031C121.376 15.5488 120.36 15.2217 119.14 15.2217C117.89 15.2217 116.859 15.5293 116.049 16.1445C115.238 16.75 114.638 17.6143 114.247 18.7373C113.856 19.8604 113.661 21.1787 113.661 22.6924C113.661 24.1279 113.847 25.417 114.218 26.5596C114.599 27.6924 115.194 28.5908 116.005 29.2549C116.815 29.9092 117.86 30.2559 119.14 30.2949ZM143.529 30.5H140.805V20.0557C140.805 18.6787 140.629 17.6436 140.277 16.9502C139.799 16.0225 138.896 15.5586 137.567 15.5586C136.972 15.5586 136.371 15.71 135.766 16.0127C135.17 16.3154 134.633 16.7744 134.154 17.3896C133.51 18.2588 133.09 19.2793 132.895 20.4512V30.5H130.17V18.2686C130.17 17.458 130.092 16.8721 129.936 16.5107C129.779 16.1494 129.428 15.9004 128.881 15.7637C129.613 15.2852 130.39 15.0361 131.21 15.0166C132.333 15.0166 132.895 15.7393 132.895 17.1846V18.8545C133.119 18.2393 133.427 17.6729 133.817 17.1553C134.911 15.7295 136.41 15.0166 138.314 15.0166C139.271 15.0166 140.146 15.1729 140.937 15.4854C141.728 15.7979 142.357 16.3057 142.826 17.0088C143.295 17.7021 143.529 18.625 143.529 19.7773V30.5ZM155.116 30.7783C153.632 30.7783 152.191 30.4951 150.795 29.9287C149.398 29.3623 148.251 28.4883 147.353 27.3066C146.464 26.1152 146.01 24.5967 145.99 22.751C146.01 21.2178 146.386 19.8555 147.118 18.6641C147.86 17.4727 148.847 16.5352 150.077 15.8516C151.317 15.1582 152.689 14.8115 154.193 14.8115C155.492 14.8115 156.542 14.9775 157.343 15.3096C158.144 15.6416 158.72 16.0469 159.071 16.5254C159.384 16.9453 159.54 17.3701 159.54 17.7998C159.54 17.8584 159.521 18.0244 159.481 18.2979C159.452 18.5615 159.232 18.8594 158.822 19.1914C158.412 19.5234 157.846 19.6895 157.123 19.6895C157.338 19.1719 157.445 18.6592 157.445 18.1514C157.445 17.9658 157.406 17.6533 157.328 17.2139C157.25 16.7744 156.942 16.3301 156.405 15.8809C155.878 15.4219 155.15 15.1924 154.223 15.1924C153.314 15.1924 152.523 15.4316 151.85 15.9102C151.186 16.3789 150.629 16.9893 150.18 17.7412C149.74 18.4932 149.413 19.2988 149.198 20.1582C148.983 21.0176 148.876 21.833 148.876 22.6045C148.876 23.9521 149.052 25.1143 149.403 26.0908C150.067 27.9658 151.21 29.2402 152.831 29.9141C153.583 30.2266 154.408 30.3828 155.307 30.3828C156.566 30.3828 157.655 30.0898 158.573 29.5039C159.501 28.918 160.336 27.873 161.078 26.3691L161.825 27.0283C160.155 29.5283 157.919 30.7783 155.116 30.7783ZM171.698 30.7783C170.224 30.7783 168.783 30.4951 167.377 29.9287C165.98 29.3623 164.828 28.4883 163.92 27.3066C163.021 26.1152 162.572 24.5967 162.572 22.751C162.572 20.251 163.49 18.2686 165.326 16.8037C166.938 15.4756 168.847 14.8115 171.054 14.8115C173.261 14.8115 174.999 15.4072 176.269 16.5986C177.548 17.79 178.319 19.4307 178.583 21.5205L178.612 21.7402H174.232C172.025 21.7402 170.18 22.3066 168.695 23.4395C167.387 24.4746 166.698 25.8174 166.63 27.4678C167.821 29.4111 169.579 30.3828 171.903 30.3828C173.144 30.3828 174.179 30.0947 175.009 29.5186C175.839 28.9326 176.693 27.8828 177.572 26.3691L178.407 27.0283C177.724 28.1904 176.762 29.123 175.521 29.8262C174.408 30.4609 173.134 30.7783 171.698 30.7783ZM166.264 26.7793C166.498 25.2949 167.226 24.0742 168.446 23.1172C169.979 21.9258 171.908 21.3301 174.232 21.3301H176.415C176.19 19.7578 175.624 18.3809 174.716 17.1992C173.69 15.8613 172.426 15.1924 170.922 15.1924C169.994 15.1924 169.188 15.4268 168.505 15.8955C167.821 16.3643 167.255 16.9697 166.806 17.7119C166.356 18.4541 166.02 19.2598 165.795 20.1289C165.57 20.9883 165.458 21.8135 165.458 22.6045C165.458 24.2842 165.727 25.6758 166.264 26.7793ZM184.032 36.9453H181.308V18.2686C181.308 17.458 181.225 16.8721 181.059 16.5107C180.902 16.1494 180.551 15.9004 180.004 15.7637C180.736 15.2852 181.518 15.0361 182.348 15.0166C183.471 15.0166 184.032 15.7393 184.032 17.1846V18.8545C184.257 18.2393 184.564 17.6729 184.955 17.1553C186.049 15.7295 187.548 15.0166 189.452 15.0166C191.415 15.0166 192.987 15.8516 194.169 17.5215C195.204 19.0449 195.722 20.8223 195.722 22.8535C195.722 25.041 195.146 26.8916 193.993 28.4053C192.714 30.0752 190.976 30.9102 188.778 30.9102C187.938 30.9102 187.089 30.7539 186.229 30.4414C185.38 30.1289 184.647 29.6748 184.032 29.0791V36.9453ZM187.885 30.251C188.256 30.251 188.764 30.1777 189.408 30.0312C190.053 29.875 190.678 29.3672 191.283 28.5078C192.27 26.9551 192.763 25.041 192.763 22.7656C192.763 20.9297 192.411 19.2939 191.708 17.8584C190.897 16.3643 189.818 15.6172 188.471 15.6172C187.309 15.6172 186.249 16.208 185.292 17.3896C184.647 18.2588 184.228 19.2793 184.032 20.4512V28.4785C184.638 29.1816 185.39 29.6846 186.288 29.9873C186.815 30.1631 187.348 30.251 187.885 30.251ZM203.031 30.5C201.117 30.5 199.809 29.7627 199.105 28.2881C198.773 27.5947 198.607 26.7939 198.607 25.8857V15.4268H196.967V15.0166C197.68 15.0166 198.222 14.8701 198.593 14.5771C199.101 14.1768 199.354 13.6396 199.354 12.9658C199.354 12.2236 199.105 11.6035 198.607 11.1055C199.047 10.8906 199.438 10.7832 199.779 10.7832C200.561 10.7832 201.059 11.1885 201.273 11.999C201.312 12.165 201.332 12.3359 201.332 12.5117C201.332 13.6055 200.678 14.4404 199.369 15.0166H204.394V15.4268H201.332V25.8857C201.332 26.5303 201.391 27.1602 201.508 27.7754C201.625 28.3906 201.859 28.8984 202.211 29.2988C202.572 29.6992 203.114 29.8994 203.837 29.8994C204.472 29.8994 205.106 29.7334 205.741 29.4014V29.8848C204.921 30.2949 204.018 30.5 203.031 30.5ZM223.671 30.5H220.946V15.4268H217.782V30.5H215.058V15.4268H213.109V15.0166H215.058C214.306 14.4697 213.881 13.9521 213.783 13.4639C213.695 12.9756 213.651 12.624 213.651 12.4092C213.651 11.8721 213.783 11.3398 214.047 10.8125C214.408 10.0801 214.979 9.46484 215.761 8.9668C216.552 8.45898 217.499 8.20508 218.603 8.20508C220.028 8.20508 221.132 8.35156 221.913 8.64453C222.694 8.9375 223.241 9.30859 223.554 9.75781C223.876 10.1973 224.037 10.6562 224.037 11.1348C224.027 11.6621 223.842 12.1162 223.48 12.4971C223.129 12.8779 222.738 13.0684 222.309 13.0684C221.762 13.0684 221.312 12.8975 220.961 12.5557C220.619 12.2139 220.448 11.7744 220.448 11.2373C220.409 10.4756 220.224 9.84082 219.892 9.33301C219.56 8.8252 219.135 8.57129 218.617 8.57129C217.934 8.57129 217.382 8.75195 216.962 9.11328C216.542 9.46484 216.259 9.875 216.112 10.3438C215.976 10.8027 215.907 11.2324 215.907 11.6328C215.907 12.4336 216.112 13.1709 216.522 13.8447C216.825 14.3525 217.245 14.7432 217.782 15.0166H223.671V30.5ZM235.375 30.7051C234.545 30.7051 233.7 30.5488 232.841 30.2363C231.991 29.9238 231.254 29.4697 230.629 28.874V30.5H227.904V11.8232C227.904 11.0127 227.826 10.4268 227.67 10.0654C227.514 9.7041 227.162 9.45508 226.615 9.31836C227.348 8.83984 228.129 8.59082 228.959 8.57129C230.072 8.57129 230.629 9.29395 230.629 10.7393V18.6494C230.854 18.0342 231.161 17.4678 231.552 16.9502C232.646 15.5244 234.149 14.8115 236.063 14.8115C237.04 14.8115 237.929 15.0312 238.729 15.4707C239.53 15.9004 240.204 16.5156 240.751 17.3164C241.308 18.1074 241.708 18.9668 241.952 19.8945C242.206 20.8125 242.333 21.7305 242.333 22.6484C242.333 24.8164 241.757 26.667 240.604 28.2002C239.325 29.8701 237.582 30.7051 235.375 30.7051ZM234.496 30.0459C234.867 30.0459 235.37 29.9727 236.005 29.8262C236.649 29.6699 237.279 29.1621 237.895 28.3027C238.871 26.75 239.359 24.8555 239.359 22.6191C239.359 20.7539 239.013 19.0986 238.319 17.6533C237.509 16.1592 236.43 15.4121 235.082 15.4121C233.92 15.4121 232.86 16.0029 231.903 17.1846C231.259 18.0537 230.834 19.0742 230.629 20.2461V28.2734C231.244 28.9766 232.001 29.4795 232.899 29.7822C233.427 29.958 233.959 30.0459 234.496 30.0459ZM248.061 30.5H245.336V18.2686C245.336 17.458 245.258 16.8721 245.102 16.5107C244.945 16.1494 244.594 15.9004 244.047 15.7637C244.779 15.2852 245.556 15.0361 246.376 15.0166C247.499 15.0166 248.061 15.7393 248.061 17.1846V18.9277C248.305 18.2148 248.632 17.5654 249.042 16.9795C249.452 16.3936 249.95 15.9199 250.536 15.5586C251.132 15.1973 251.811 15.0166 252.572 15.0166C253.598 15.0166 254.433 15.168 255.077 15.4707C255.722 15.7734 256.186 16.1494 256.469 16.5986C256.723 16.9893 256.85 17.3799 256.85 17.7705C256.85 17.8291 256.84 17.9805 256.82 18.2246C256.801 18.4688 256.615 18.7471 256.264 19.0596C255.922 19.3623 255.438 19.5137 254.813 19.5137C254.882 19.1328 254.916 18.7764 254.916 18.4443C254.916 17.7021 254.687 17.0332 254.228 16.4375C253.769 15.832 253.095 15.5293 252.206 15.5293C251.034 15.5293 250.067 16.1299 249.306 17.3311C248.681 18.4053 248.266 19.5234 248.061 20.6855V30.5ZM266.503 30.7783C265.028 30.7783 263.588 30.4951 262.182 29.9287C260.785 29.3623 259.633 28.4883 258.725 27.3066C257.826 26.1152 257.377 24.5967 257.377 22.751C257.377 20.251 258.295 18.2686 260.131 16.8037C261.742 15.4756 263.651 14.8115 265.858 14.8115C268.065 14.8115 269.804 15.4072 271.073 16.5986C272.353 17.79 273.124 19.4307 273.388 21.5205L273.417 21.7402H269.037C266.83 21.7402 264.984 22.3066 263.5 23.4395C262.191 24.4746 261.503 25.8174 261.435 27.4678C262.626 29.4111 264.384 30.3828 266.708 30.3828C267.948 30.3828 268.983 30.0947 269.813 29.5186C270.644 28.9326 271.498 27.8828 272.377 26.3691L273.212 27.0283C272.528 28.1904 271.566 29.123 270.326 29.8262C269.213 30.4609 267.938 30.7783 266.503 30.7783ZM261.068 26.7793C261.303 25.2949 262.03 24.0742 263.251 23.1172C264.784 21.9258 266.713 21.3301 269.037 21.3301H271.22C270.995 19.7578 270.429 18.3809 269.521 17.1992C268.495 15.8613 267.23 15.1924 265.727 15.1924C264.799 15.1924 263.993 15.4268 263.31 15.8955C262.626 16.3643 262.06 16.9697 261.61 17.7119C261.161 18.4541 260.824 19.2598 260.6 20.1289C260.375 20.9883 260.263 21.8135 260.263 22.6045C260.263 24.2842 260.531 25.6758 261.068 26.7793Z" fill="#2C2C2C"/>
<path d="M333.069 30.4854H330.052L323.929 20.876L317.806 30.4854H317.352L323.709 20.5244L316.077 8.55664H319.08L325.218 18.166L331.341 8.55664H331.795L325.438 18.5176L333.069 30.4854Z" fill="#2C2C2C"/>
<g clip-path="url(#clip1_86_603)">
<path d="M404.624 33.0745C402.768 33.1956 401.051 33.2728 399.479 32.1878C398.004 31.1694 396.444 30.2751 394.923 29.3263L394.999 29.1174L395.902 29.0418C393.507 24.4688 391.149 19.9624 388.725 15.3411H392.487L386.747 0.0786877L386.873 0C392.664 7.05465 398.458 14.1078 404.349 21.282H399.798L404.624 33.0745Z" fill="#2C2C2C"/>
<path d="M414.833 33.3937C414.231 36.5428 412.14 38.177 408.863 38.2466C406.726 38.2936 404.685 37.8199 402.674 37.1511C402.461 37.08 402.25 36.9998 402.035 36.9347C401.997 36.9241 401.946 36.9589 401.836 36.9922C402.194 38.1654 402.552 39.3367 402.909 40.5059C403.261 41.6453 403.618 42.7848 403.971 43.9243L403.804 43.9999C402.786 42.5462 401.768 41.091 400.75 39.6343C400.259 38.9321 399.734 38.2527 399.294 37.5158C398.197 35.6999 396.709 34.3788 394.885 33.2439C389.646 29.9875 385.189 25.8412 381.875 20.5616C380.554 18.4582 379.487 16.2247 379.377 13.6764C379.245 10.5819 380.982 8.57233 384.058 8.31811C385.195 8.22278 386.354 8.38318 387.503 8.40285C388.125 8.41345 388.46 8.7055 388.612 9.30171C388.73 9.67593 388.868 10.0436 389.025 10.4033C388.235 10.4487 387.494 10.4442 386.768 10.541C383.966 10.9133 382.507 12.888 382.904 15.7117C383.172 17.6199 383.921 19.3435 384.935 20.9566C388.52 26.6417 393.486 30.7925 399.372 33.8689C401.537 35.0038 403.807 35.8845 406.248 36.1962C407.192 36.3233 408.147 36.3415 409.095 36.2507C411.574 35.9874 413.168 34.1761 413.393 31.5007C413.559 29.5411 413.112 27.6904 412.364 25.9018C410.512 21.4816 407.291 18.2206 403.526 15.4303C403.284 15.2517 403.031 15.0913 402.783 14.9218C409.019 18.1344 413.932 22.4698 414.94 29.9345C415.088 31.086 415.052 32.2537 414.833 33.3937Z" fill="#2C2C2C"/>
<path d="M416.595 36.2885C416.066 36.5148 415.524 36.7079 414.972 36.8665C414.695 36.9543 414.403 36.9891 414.01 37.0693C414.147 36.918 414.188 36.8484 414.248 36.8166C416.926 35.438 417.784 32.7642 417.257 29.8043C416.788 27.1985 415.575 24.9196 414.097 22.7648C411.389 18.8017 407.88 15.6784 403.986 12.9546C403.124 12.3493 402.268 11.744 401.409 11.1311L401.609 10.8784C404.048 12.5354 406.543 14.1182 408.914 15.8721C412.035 18.1752 414.854 20.8536 416.977 24.1343C418.034 25.7488 418.914 27.4739 419.601 29.2792C420.706 32.2618 419.458 34.9538 416.595 36.2885Z" fill="#2C2C2C"/>
<path d="M386.4 28.0991L386.166 28.3366C385.078 27.347 383.96 26.3876 382.91 25.3586C380.239 22.7423 377.821 19.911 376.276 16.4609C375.771 15.3106 375.385 14.1108 375.126 12.8806C374.598 10.4367 375.746 8.64355 378.163 8.0761C379.067 7.88669 379.995 7.83973 380.913 7.93688C380.803 7.97622 380.696 8.01859 380.585 8.0534C378.131 8.81001 377.078 10.2461 377.097 12.8473C377.114 15.2412 378.053 17.3537 379.15 19.4086C380.83 22.5592 383.223 25.1332 385.752 27.5906C385.959 27.7718 386.175 27.9415 386.4 28.0991Z" fill="#2C2C2C"/>
</g>
<path d="M448.966 30.6904C446.935 30.6904 445.147 30.3779 443.604 29.7529C442.071 29.1279 440.787 28.293 439.752 27.248C438.717 26.1934 437.936 25.0117 437.408 23.7031C436.852 22.3457 436.573 20.9102 436.573 19.3965C436.573 18.0586 436.812 16.7402 437.291 15.4414C437.77 14.1426 438.517 12.9561 439.532 11.8818C440.548 10.8076 441.827 9.95312 443.37 9.31836C444.913 8.67383 446.72 8.35156 448.79 8.35156C451.505 8.35156 453.458 9.05469 454.649 10.4609C455.167 11.0762 455.426 11.7598 455.426 12.5117C455.426 13.1953 455.177 13.8105 454.679 14.3574C453.956 15.0996 452.945 15.4707 451.646 15.4707C451.158 15.4707 450.67 15.3975 450.182 15.251C449.391 15.0264 448.302 14.5918 446.915 13.9473C446.505 13.752 446.09 13.5615 445.67 13.376C444.166 12.6631 442.838 12.3066 441.686 12.3066H441.51C441.354 12.5215 441.212 12.7461 441.085 12.9805C440.05 14.8262 439.532 16.916 439.532 19.25C439.532 20.7148 439.762 22.1455 440.221 23.542C440.641 24.8115 441.246 25.9541 442.037 26.9697C442.838 27.9756 443.814 28.7812 444.967 29.3867C446.129 29.9824 447.462 30.2803 448.966 30.2803C450.675 30.2803 452.335 29.8506 453.946 28.9912C455.616 28.1025 456.871 26.8184 457.711 25.1387L458.077 25.3145L457.989 25.5049C457.11 27.165 455.831 28.4443 454.151 29.3428C452.481 30.2412 450.753 30.6904 448.966 30.6904ZM451.646 15.0605C452.828 15.0605 453.736 14.7334 454.371 14.0791C454.801 13.6104 455.016 13.083 455.016 12.4971C455.016 12.3213 454.996 12.1406 454.957 11.9551C454.732 11.0566 454.151 10.334 453.214 9.78711C452.042 9.10352 450.567 8.76172 448.79 8.76172C447.823 8.76172 446.925 8.85449 446.095 9.04004C445.274 9.22559 444.508 9.54785 443.795 10.0068C443.092 10.4658 442.428 11.0957 441.803 11.8965C442.086 11.8965 442.369 11.9209 442.652 11.9697C443.756 12.1748 444.82 12.5166 445.846 12.9951C447.594 13.7959 448.614 14.2598 448.907 14.3867C449.981 14.8359 450.895 15.0605 451.646 15.0605ZM467.438 30.7051H466.778V30.6904C464.415 30.6123 462.496 29.7871 461.021 28.2148C459.645 26.6523 458.956 24.8311 458.956 22.751C458.956 20.6807 459.635 18.8594 460.992 17.2871C462.535 15.6367 464.576 14.8115 467.115 14.8115C469.645 14.8115 471.681 15.6367 473.224 17.2871C474.581 18.8594 475.265 20.6807 475.274 22.751C475.265 24.8311 474.571 26.6523 473.194 28.2148C471.72 29.7871 469.801 30.6123 467.438 30.6904V30.7051ZM467.115 30.2949C468.404 30.2559 469.449 29.9189 470.25 29.2842C471.061 28.6396 471.651 27.751 472.022 26.6182C472.394 25.4854 472.579 24.1816 472.579 22.707C472.579 21.291 472.379 20.0166 471.979 18.8838C471.578 17.751 470.973 16.8574 470.162 16.2031C469.352 15.5488 468.336 15.2217 467.115 15.2217C465.865 15.2217 464.835 15.5293 464.024 16.1445C463.214 16.75 462.613 17.6143 462.223 18.7373C461.832 19.8604 461.637 21.1787 461.637 22.6924C461.637 24.1279 461.822 25.417 462.193 26.5596C462.574 27.6924 463.17 28.5908 463.98 29.2549C464.791 29.9092 465.836 30.2559 467.115 30.2949ZM491.505 30.5H488.78V20.0557C488.78 18.6787 488.604 17.6436 488.253 16.9502C487.774 16.0225 486.871 15.5586 485.543 15.5586C484.947 15.5586 484.347 15.71 483.741 16.0127C483.146 16.3154 482.608 16.7744 482.13 17.3896C481.485 18.2588 481.065 19.2793 480.87 20.4512V30.5H478.146V18.2686C478.146 17.458 478.067 16.8721 477.911 16.5107C477.755 16.1494 477.403 15.9004 476.856 15.7637C477.589 15.2852 478.365 15.0361 479.186 15.0166C480.309 15.0166 480.87 15.7393 480.87 17.1846V18.8545C481.095 18.2393 481.402 17.6729 481.793 17.1553C482.887 15.7295 484.386 15.0166 486.29 15.0166C487.247 15.0166 488.121 15.1729 488.912 15.4854C489.703 15.7979 490.333 16.3057 490.802 17.0088C491.271 17.7021 491.505 18.625 491.505 19.7773V30.5ZM503.092 30.7783C501.607 30.7783 500.167 30.4951 498.771 29.9287C497.374 29.3623 496.227 28.4883 495.328 27.3066C494.439 26.1152 493.985 24.5967 493.966 22.751C493.985 21.2178 494.361 19.8555 495.094 18.6641C495.836 17.4727 496.822 16.5352 498.053 15.8516C499.293 15.1582 500.665 14.8115 502.169 14.8115C503.468 14.8115 504.518 14.9775 505.318 15.3096C506.119 15.6416 506.695 16.0469 507.047 16.5254C507.359 16.9453 507.516 17.3701 507.516 17.7998C507.516 17.8584 507.496 18.0244 507.457 18.2979C507.428 18.5615 507.208 18.8594 506.798 19.1914C506.388 19.5234 505.821 19.6895 505.099 19.6895C505.313 19.1719 505.421 18.6592 505.421 18.1514C505.421 17.9658 505.382 17.6533 505.304 17.2139C505.226 16.7744 504.918 16.3301 504.381 15.8809C503.854 15.4219 503.126 15.1924 502.198 15.1924C501.29 15.1924 500.499 15.4316 499.825 15.9102C499.161 16.3789 498.604 16.9893 498.155 17.7412C497.716 18.4932 497.389 19.2988 497.174 20.1582C496.959 21.0176 496.852 21.833 496.852 22.6045C496.852 23.9521 497.027 25.1143 497.379 26.0908C498.043 27.9658 499.186 29.2402 500.807 29.9141C501.559 30.2266 502.384 30.3828 503.282 30.3828C504.542 30.3828 505.631 30.0898 506.549 29.5039C507.477 28.918 508.312 27.873 509.054 26.3691L509.801 27.0283C508.131 29.5283 505.895 30.7783 503.092 30.7783ZM519.674 30.7783C518.199 30.7783 516.759 30.4951 515.353 29.9287C513.956 29.3623 512.804 28.4883 511.896 27.3066C510.997 26.1152 510.548 24.5967 510.548 22.751C510.548 20.251 511.466 18.2686 513.302 16.8037C514.913 15.4756 516.822 14.8115 519.029 14.8115C521.236 14.8115 522.975 15.4072 524.244 16.5986C525.523 17.79 526.295 19.4307 526.559 21.5205L526.588 21.7402H522.208C520.001 21.7402 518.155 22.3066 516.671 23.4395C515.362 24.4746 514.674 25.8174 514.605 27.4678C515.797 29.4111 517.555 30.3828 519.879 30.3828C521.119 30.3828 522.154 30.0947 522.984 29.5186C523.814 28.9326 524.669 27.8828 525.548 26.3691L526.383 27.0283C525.699 28.1904 524.737 29.123 523.497 29.8262C522.384 30.4609 521.109 30.7783 519.674 30.7783ZM514.239 26.7793C514.474 25.2949 515.201 24.0742 516.422 23.1172C517.955 21.9258 519.884 21.3301 522.208 21.3301H524.391C524.166 19.7578 523.6 18.3809 522.691 17.1992C521.666 15.8613 520.401 15.1924 518.897 15.1924C517.97 15.1924 517.164 15.4268 516.48 15.8955C515.797 16.3643 515.23 16.9697 514.781 17.7119C514.332 18.4541 513.995 19.2598 513.771 20.1289C513.546 20.9883 513.434 21.8135 513.434 22.6045C513.434 24.2842 513.702 25.6758 514.239 26.7793ZM532.008 36.9453H529.283V18.2686C529.283 17.458 529.2 16.8721 529.034 16.5107C528.878 16.1494 528.526 15.9004 527.979 15.7637C528.712 15.2852 529.493 15.0361 530.323 15.0166C531.446 15.0166 532.008 15.7393 532.008 17.1846V18.8545C532.232 18.2393 532.54 17.6729 532.931 17.1553C534.024 15.7295 535.523 15.0166 537.428 15.0166C539.391 15.0166 540.963 15.8516 542.145 17.5215C543.18 19.0449 543.697 20.8223 543.697 22.8535C543.697 25.041 543.121 26.8916 541.969 28.4053C540.689 30.0752 538.951 30.9102 536.754 30.9102C535.914 30.9102 535.064 30.7539 534.205 30.4414C533.355 30.1289 532.623 29.6748 532.008 29.0791V36.9453ZM535.86 30.251C536.231 30.251 536.739 30.1777 537.384 30.0312C538.028 29.875 538.653 29.3672 539.259 28.5078C540.245 26.9551 540.738 25.041 540.738 22.7656C540.738 20.9297 540.387 19.2939 539.684 17.8584C538.873 16.3643 537.794 15.6172 536.446 15.6172C535.284 15.6172 534.225 16.208 533.268 17.3896C532.623 18.2588 532.203 19.2793 532.008 20.4512V28.4785C532.613 29.1816 533.365 29.6846 534.264 29.9873C534.791 30.1631 535.323 30.251 535.86 30.251ZM551.007 30.5C549.093 30.5 547.784 29.7627 547.081 28.2881C546.749 27.5947 546.583 26.7939 546.583 25.8857V15.4268H544.942V15.0166C545.655 15.0166 546.197 14.8701 546.568 14.5771C547.076 14.1768 547.33 13.6396 547.33 12.9658C547.33 12.2236 547.081 11.6035 546.583 11.1055C547.022 10.8906 547.413 10.7832 547.755 10.7832C548.536 10.7832 549.034 11.1885 549.249 11.999C549.288 12.165 549.308 12.3359 549.308 12.5117C549.308 13.6055 548.653 14.4404 547.345 15.0166H552.369V15.4268H549.308V25.8857C549.308 26.5303 549.366 27.1602 549.483 27.7754C549.601 28.3906 549.835 28.8984 550.187 29.2988C550.548 29.6992 551.09 29.8994 551.812 29.8994C552.447 29.8994 553.082 29.7334 553.717 29.4014V29.8848C552.896 30.2949 551.993 30.5 551.007 30.5ZM570.768 30.7783C569.293 30.7783 567.853 30.4951 566.446 29.9287C565.05 29.3623 563.897 28.4883 562.989 27.3066C562.091 26.1152 561.642 24.5967 561.642 22.751C561.642 20.251 562.56 18.2686 564.396 16.8037C566.007 15.4756 567.916 14.8115 570.123 14.8115C572.33 14.8115 574.068 15.4072 575.338 16.5986C576.617 17.79 577.389 19.4307 577.652 21.5205L577.682 21.7402H573.302C571.095 21.7402 569.249 22.3066 567.765 23.4395C566.456 24.4746 565.768 25.8174 565.699 27.4678C566.891 29.4111 568.648 30.3828 570.973 30.3828C572.213 30.3828 573.248 30.0947 574.078 29.5186C574.908 28.9326 575.763 27.8828 576.642 26.3691L577.477 27.0283C576.793 28.1904 575.831 29.123 574.591 29.8262C573.478 30.4609 572.203 30.7783 570.768 30.7783ZM565.333 26.7793C565.567 25.2949 566.295 24.0742 567.516 23.1172C569.049 21.9258 570.978 21.3301 573.302 21.3301H575.484C575.26 19.7578 574.693 18.3809 573.785 17.1992C572.76 15.8613 571.495 15.1924 569.991 15.1924C569.063 15.1924 568.258 15.4268 567.574 15.8955C566.891 16.3643 566.324 16.9697 565.875 17.7119C565.426 18.4541 565.089 19.2598 564.864 20.1289C564.64 20.9883 564.527 21.8135 564.527 22.6045C564.527 24.2842 564.796 25.6758 565.333 26.7793ZM593.575 30.5H590.851V20.0557C590.851 18.6787 590.675 17.6436 590.323 16.9502C589.845 16.0225 588.941 15.5586 587.613 15.5586C587.018 15.5586 586.417 15.71 585.812 16.0127C585.216 16.3154 584.679 16.7744 584.2 17.3896C583.556 18.2588 583.136 19.2793 582.94 20.4512V30.5H580.216V18.2686C580.216 17.458 580.138 16.8721 579.981 16.5107C579.825 16.1494 579.474 15.9004 578.927 15.7637C579.659 15.2852 580.436 15.0361 581.256 15.0166C582.379 15.0166 582.94 15.7393 582.94 17.1846V18.8545C583.165 18.2393 583.473 17.6729 583.863 17.1553C584.957 15.7295 586.456 15.0166 588.36 15.0166C589.317 15.0166 590.191 15.1729 590.982 15.4854C591.773 15.7979 592.403 16.3057 592.872 17.0088C593.341 17.7021 593.575 18.625 593.575 19.7773V30.5ZM605.191 30.7783C603.717 30.7783 602.276 30.4951 600.87 29.9287C599.474 29.3623 598.321 28.4883 597.413 27.3066C596.515 26.1152 596.065 24.5967 596.065 22.751C596.065 20.251 596.983 18.2686 598.819 16.8037C600.431 15.4756 602.34 14.8115 604.547 14.8115C606.754 14.8115 608.492 15.4072 609.762 16.5986C611.041 17.79 611.812 19.4307 612.076 21.5205L612.105 21.7402H607.726C605.519 21.7402 603.673 22.3066 602.188 23.4395C600.88 24.4746 600.191 25.8174 600.123 27.4678C601.314 29.4111 603.072 30.3828 605.396 30.3828C606.637 30.3828 607.672 30.0947 608.502 29.5186C609.332 28.9326 610.187 27.8828 611.065 26.3691L611.9 27.0283C611.217 28.1904 610.255 29.123 609.015 29.8262C607.901 30.4609 606.627 30.7783 605.191 30.7783ZM599.757 26.7793C599.991 25.2949 600.719 24.0742 601.939 23.1172C603.473 21.9258 605.401 21.3301 607.726 21.3301H609.908C609.684 19.7578 609.117 18.3809 608.209 17.1992C607.184 15.8613 605.919 15.1924 604.415 15.1924C603.487 15.1924 602.682 15.4268 601.998 15.8955C601.314 16.3643 600.748 16.9697 600.299 17.7119C599.85 18.4541 599.513 19.2598 599.288 20.1289C599.063 20.9883 598.951 21.8135 598.951 22.6045C598.951 24.2842 599.22 25.6758 599.757 26.7793ZM617.364 30.5H614.64V18.2686C614.64 17.458 614.562 16.8721 614.405 16.5107C614.249 16.1494 613.897 15.9004 613.351 15.7637C614.083 15.2852 614.859 15.0361 615.68 15.0166C616.803 15.0166 617.364 15.7393 617.364 17.1846V18.9277C617.608 18.2148 617.936 17.5654 618.346 16.9795C618.756 16.3936 619.254 15.9199 619.84 15.5586C620.436 15.1973 621.114 15.0166 621.876 15.0166C622.901 15.0166 623.736 15.168 624.381 15.4707C625.025 15.7734 625.489 16.1494 625.772 16.5986C626.026 16.9893 626.153 17.3799 626.153 17.7705C626.153 17.8291 626.144 17.9805 626.124 18.2246C626.104 18.4688 625.919 18.7471 625.567 19.0596C625.226 19.3623 624.742 19.5137 624.117 19.5137C624.186 19.1328 624.22 18.7764 624.22 18.4443C624.22 17.7021 623.99 17.0332 623.531 16.4375C623.072 15.832 622.398 15.5293 621.51 15.5293C620.338 15.5293 619.371 16.1299 618.609 17.3311C617.984 18.4053 617.569 19.5234 617.364 20.6855V30.5ZM634.664 39.333C633.316 39.333 632.228 39.1572 631.397 38.8057C630.577 38.4639 629.986 38.0391 629.625 37.5312C629.303 37.0918 629.142 36.6475 629.142 36.1982C629.142 36.1396 629.156 35.9688 629.186 35.6855C629.215 35.4023 629.439 35.085 629.859 34.7334C630.279 34.3916 630.855 34.2207 631.588 34.2207C631.48 34.6211 631.427 34.9971 631.427 35.3486C631.427 36.2178 631.803 37.0088 632.555 37.7217C633.307 38.4443 634.479 38.8057 636.07 38.8057C637.672 38.8057 639.176 38.2979 640.582 37.2822C641.793 36.3936 642.54 35.2119 642.823 33.7373C642.862 33.4932 642.882 33.2637 642.882 33.0488C642.882 32.2871 642.608 31.6279 642.062 31.0713C641.515 30.5146 640.621 30.2363 639.381 30.2363C638.268 30.2363 636.598 30.6416 634.371 31.4521C632.184 32.2725 630.538 32.6826 629.435 32.6826C628.429 32.6826 627.628 32.4824 627.032 32.082C626.056 31.4375 625.567 30.5391 625.567 29.3867C625.567 29.2012 625.602 28.9082 625.67 28.5078C625.748 28.0977 625.992 27.6533 626.402 27.1748C626.979 26.501 627.779 26.1641 628.805 26.1641C628.99 26.1641 629.171 26.1738 629.347 26.1934C629.19 26.0566 629.039 25.9053 628.893 25.7393C627.779 24.4697 627.218 22.9854 627.208 21.2861C627.208 19.5967 627.765 18.1123 628.878 16.833C630.128 15.4854 631.788 14.8115 633.858 14.8115C634.942 14.8115 635.973 15.0215 636.949 15.4414C636.568 14.8066 636.378 14.1865 636.378 13.5811C636.378 13.2881 636.466 12.8438 636.642 12.248C636.827 11.6523 637.481 11.2129 638.604 10.9297C638.858 10.8906 639.112 10.8711 639.366 10.8711C640.079 10.8711 640.768 11.0322 641.432 11.3545L641.563 11.4131L641.417 13.3906L641.124 13.1855C640.372 12.6582 639.601 12.3945 638.81 12.3945C638.321 12.3945 637.916 12.5068 637.594 12.7314C637.135 13.0439 636.905 13.4883 636.905 14.0645C636.905 14.0742 636.905 14.2305 636.905 14.5332C636.915 14.8359 637.281 15.3486 638.004 16.0713C638.307 16.2959 638.59 16.5498 638.854 16.833C639.957 18.1123 640.514 19.5967 640.523 21.2861C640.514 22.9854 639.947 24.4697 638.824 25.7393C637.633 27.0283 636.08 27.7021 634.166 27.7607V27.7754H633.565V27.7607C632.325 27.7217 631.188 27.3945 630.152 26.7793C629.732 26.6328 629.298 26.5596 628.849 26.5596C627.755 26.5596 626.964 26.9795 626.476 27.8193C626.329 28.0732 626.256 28.3271 626.256 28.5811C626.256 28.9424 626.402 29.3135 626.695 29.6943C627.271 30.3193 628.185 30.6318 629.435 30.6318C630.411 30.6318 631.969 30.2314 634.107 29.4307C634.947 29.1182 635.802 28.835 636.671 28.5811C637.599 28.3271 638.414 28.2002 639.117 28.2002C640.113 28.2002 640.943 28.4785 641.607 29.0352C642.281 29.5918 642.755 30.2949 643.028 31.1445C643.214 31.7012 643.307 32.2773 643.307 32.873C643.307 33.1758 643.282 33.4834 643.233 33.7959C642.931 35.3779 642.125 36.6523 640.816 37.6191C639.234 38.7617 637.184 39.333 634.664 39.333ZM633.902 27.3652C636.471 27.2676 637.755 25.1826 637.755 21.1104C637.755 17.1846 636.456 15.2217 633.858 15.2217C632.364 15.2217 631.31 15.8809 630.694 17.1992C630.206 18.2246 629.962 19.5479 629.962 21.1689C629.962 25.1826 631.251 27.248 633.829 27.3652H633.902ZM649.239 36.8428C648.175 36.8428 647.325 36.6426 646.69 36.2422C645.646 35.6074 645.123 34.7627 645.123 33.708C645.123 33.4932 645.177 33.1855 645.284 32.7852C645.382 32.3945 645.694 31.999 646.222 31.5986C646.739 31.208 647.442 31.0127 648.331 31.0127C648.897 31.0127 649.483 31.1299 650.089 31.3643L650.631 31.5693C651.432 31.8818 652.013 32.0381 652.374 32.0381C652.569 32.0381 652.765 32.0137 652.96 31.9648C653.536 31.75 654.01 31.3936 654.381 30.8955L654.557 30.4854L649.298 18.5029C648.995 17.751 648.683 17.1455 648.36 16.6865C648.048 16.2178 647.599 15.9102 647.013 15.7637C647.54 15.2852 648.209 15.0361 649.02 15.0166C650.113 15.0166 650.987 15.7393 651.642 17.1846L652.037 18.0928H652.008L655.963 27.3066L659.845 18.4736C660.157 17.7803 660.313 17.1455 660.313 16.5693C660.313 16.5205 660.304 16.3301 660.284 15.998C660.274 15.666 659.996 15.3389 659.449 15.0166H661.808C657.042 25.8662 654.464 31.75 654.073 32.668C652.882 35.4512 651.271 36.8428 649.239 36.8428ZM649.4 36.3887C649.996 36.3887 650.577 36.1738 651.144 35.7441C651.72 35.3145 652.228 34.8018 652.667 34.2061C653.106 33.6201 653.443 33.0537 653.678 32.5068L653.941 31.9062C653.473 32.2676 652.95 32.4482 652.374 32.4482C652.071 32.4482 651.773 32.3994 651.48 32.3018C651.256 32.2334 650.743 32.0527 649.942 31.7598C649.532 31.6133 649.151 31.54 648.8 31.54C648.204 31.54 647.74 31.7012 647.408 32.0234C646.959 32.4531 646.734 33.0098 646.734 33.6934C646.734 34.0254 646.808 34.3916 646.954 34.792C647.101 35.1924 647.379 35.5586 647.789 35.8906C648.209 36.2227 648.746 36.3887 649.4 36.3887Z" fill="#2C2C2C"/>
<defs>
<clipPath id="clip0_86_603">
<rect width="72" height="38" fill="white" transform="translate(0 3)"/>
</clipPath>
<clipPath id="clip1_86_603">
<rect width="45" height="44" fill="white" transform="translate(375)"/>
</clipPath>
</defs>
</svg>
