<svg width="283" height="32" viewBox="0 0 283 32" fill="none" xmlns="http://www.w3.org/2000/svg">
<g clip-path="url(#clip0_97_968)">
<path d="M47.265 21.1954C43.95 30.5777 33.9975 34.3714 25.5201 30.4952C22.4754 29.1025 20.2544 26.7724 18.5612 23.9033C17.0937 21.4171 15.0461 19.6583 12.2756 18.8743C9.98695 18.2295 7.67413 17.6686 5.35749 17.1335C3.58271 16.7234 1.78753 16.4113 0.00255013 16.0554V15.9703C3.40251 15.9703 6.80247 15.9703 10.2024 15.9703C12.9602 15.9703 15.6045 16.5029 18.092 17.7395C19.6424 18.5132 20.9353 19.5822 21.8749 21.0922C21.3573 21.3991 21.5192 21.7821 21.7857 22.0709C22.7508 23.1193 23.6293 24.3004 24.7564 25.1335C28.0713 27.5835 31.8236 27.8208 35.7111 26.9671C36.3485 26.8279 37.0154 26.6396 37.5458 26.2863C38.6715 25.5196 39.7575 24.695 40.7995 23.8156C41.7235 23.0794 42.4293 22.1002 42.8395 20.9852C43.0014 20.5326 43.2947 20.3649 43.7626 20.3739C44.7392 20.3959 45.7158 20.3739 46.695 20.3817C47.3874 20.3843 47.4996 20.5313 47.265 21.1954ZM16.1324 17.2676L21.18 20.6796C19.9012 19.0716 18.0806 17.9342 16.1324 17.2676ZM32.3247 30.9362C28.8618 30.9207 25.7993 29.657 22.9 27.8646C27.6927 32.4397 36.9338 32.5429 41.7698 27.8362C38.8666 29.6918 35.8028 30.9504 32.3209 30.9349L32.3247 30.9362Z" fill="black"/>
<path d="M52.3356 15.7795C49.1175 15.6222 46.194 14.5171 43.7766 12.254C43.3661 11.8672 43.12 11.4546 43.0792 10.8704C43.0065 9.81045 42.4034 9.03547 41.692 8.34301L41.4969 8.42296L42.5424 11.6377C42.2007 11.6041 41.868 11.6647 41.7838 11.5461C41.437 11.0548 41.1654 10.5081 40.8671 9.98324L41.0851 9.8053C41.219 10.0232 41.3529 10.2424 41.488 10.4604L41.7009 10.3172L40.2666 7.45326L40.0345 7.69053L39.0464 7.30368L39.7425 8.20633L39.624 8.31077C39.3919 8.10317 39.1599 7.89427 38.9253 7.68795C38.655 7.44811 38.4153 7.17215 38.1067 6.98131C36.6201 6.06835 35.0468 5.3991 33.2809 5.28434C33.1534 5.2766 32.9329 5.24823 32.929 5.21213C32.8768 4.66152 32.4267 4.81239 32.1169 4.7131C31.9486 4.65894 31.793 4.56996 31.5469 4.4552C31.629 4.41085 31.7142 4.37291 31.8019 4.34172C33.7896 4.0374 35.6269 4.55578 37.4017 5.40039C37.5153 5.45998 37.6201 5.53552 37.7128 5.62477C38.1412 6.01161 38.5249 6.46165 39.0018 6.76597C39.4009 7.02387 39.9083 7.09994 40.3673 7.25855L40.5012 7.15797C40.3737 6.95165 40.2819 6.69633 40.1046 6.54675C39.3065 5.87235 38.4905 5.21858 37.6643 4.57899C37.4125 4.38132 37.1304 4.22668 36.8292 4.12122C35.1399 3.56545 33.4212 3.20955 31.6311 3.4365C31.4908 3.45455 31.2486 3.56545 31.2486 3.6454C31.2308 4.04256 30.9719 3.99356 30.7157 4.02064C27.6939 4.35849 25.158 5.64798 23.243 8.06706C22.8133 8.60994 22.5022 9.26758 22.223 9.90974C21.5064 11.5358 21.1201 11.8014 19.3492 11.7305C18.8825 11.7112 18.4146 11.697 17.9467 11.6905C17.1881 11.6815 17.1128 11.5835 17.3423 10.8704C17.3819 10.7415 17.4214 10.6241 17.4698 10.5042C18.2104 8.46576 19.3525 6.60063 20.8269 5.02184C22.3013 3.44306 24.0773 2.1835 26.0473 1.3195C28.0173 0.455499 30.1403 0.00505447 32.2875 -0.00453568C34.4347 -0.0141258 36.5615 0.417339 38.539 1.26371C41.7978 2.64475 44.2012 5.00323 46.0053 8.02064C47.5875 10.668 49.8149 12.4281 52.8099 13.1477C56.8324 14.1135 60.8563 15.0819 65 16.0696C60.739 15.9858 56.5328 15.9845 52.3356 15.7795ZM23.0109 4.15088C29.4878 0.0503006 35.8475 0.264354 42.0592 4.55191C37.867 -0.00514984 28.4028 -0.738869 23.016 4.15088H23.0109ZM44.2687 11.5977C45.4446 12.9031 46.9332 13.8802 48.5909 14.4346L44.2687 11.5977Z" fill="black"/>
<path d="M32.2992 23.1463C28.3888 23.1773 25.1159 19.8981 25.0751 15.9084C25.0343 11.9187 28.246 8.59443 32.1691 8.55832C36.1433 8.52351 39.4366 11.782 39.4697 15.7795C39.5029 19.7769 36.2542 23.1154 32.2992 23.1463ZM32.1462 9.29849C28.566 9.40938 25.7215 12.3933 25.8095 15.9484C25.9 19.5719 28.844 22.4668 32.3527 22.3817C33.21 22.366 34.0556 22.1788 34.841 21.8308C35.6263 21.4829 36.3358 20.9812 36.9284 20.3546C37.5211 19.728 37.9852 18.9889 38.294 18.18C38.6028 17.3711 38.7502 16.5083 38.7277 15.6415C38.632 12.0954 35.6078 9.19146 32.1462 9.29849Z" fill="black"/>
<path d="M37.9244 25.5771C37.9181 25.5074 37.9104 25.4391 37.904 25.3707C37.7842 25.3707 37.649 25.3308 37.5445 25.3707C34.4526 26.7608 31.283 26.7324 28.0815 25.8698C27.444 25.6983 26.8066 25.4662 26.5171 24.7092C26.4241 24.4707 26.0186 24.3598 25.7611 24.1831C25.2829 23.853 24.7615 23.568 24.3446 23.1722C23.716 22.5726 23.1627 21.8943 22.5532 21.2225L22.0037 21.4146C23.8805 24.3417 26.4763 26.2424 29.929 26.7441C32.6995 27.1567 35.3949 26.8176 37.9244 25.5771Z" fill="black"/>
<path d="M42.3728 20.3726C42.0401 20.441 41.7966 20.4294 41.6563 20.5441C41.576 20.6112 41.6882 20.8884 41.6703 21.0599C41.6525 21.2314 41.6359 21.4855 41.5263 21.6325C41.0226 22.3107 40.4871 22.9671 39.9861 23.6492C41.0915 22.891 41.9597 21.9407 42.3728 20.3726Z" fill="black"/>
<path d="M26.2647 6.44228C24.8316 7.01481 23.693 8.20888 23.6816 9.15021C24.4109 8.94776 24.3344 8.13409 24.787 7.77045C25.2625 7.39005 25.6999 6.95421 26.2647 6.44228Z" fill="black"/>
</g>
<path d="M91.6836 23.1523C90.0586 23.1523 88.6289 22.9023 87.3945 22.4023C86.168 21.9023 85.1406 21.2344 84.3125 20.3984C83.4844 19.5547 82.8594 18.6094 82.4375 17.5625C81.9922 16.4766 81.7695 15.3281 81.7695 14.1172C81.7695 13.0469 81.9609 11.9922 82.3438 10.9531C82.7266 9.91406 83.3242 8.96484 84.1367 8.10547C84.9492 7.24609 85.9727 6.5625 87.207 6.05469C88.4414 5.53906 89.8867 5.28125 91.543 5.28125C93.707 5.28125 95.2695 5.84375 96.2305 6.96875C96.6445 7.45312 96.8516 7.99219 96.8516 8.58594C96.8516 9.14062 96.6523 9.64062 96.2539 10.0859C95.6758 10.6797 94.8672 10.9766 93.8281 10.9766C93.4375 10.9766 93.0469 10.918 92.6562 10.8008C92 10.6133 91.1328 10.2656 90.0547 9.75781L89.0469 9.30078C87.8438 8.73047 86.7812 8.44531 85.8594 8.44531H85.7188C84.6641 9.99219 84.1367 11.8438 84.1367 14C84.1367 15.1719 84.3203 16.3164 84.6875 17.4336C85.0234 18.4492 85.5078 19.3633 86.1406 20.1758C86.7812 20.9805 87.5625 21.625 88.4844 22.1094C89.4141 22.5859 90.4805 22.8242 91.6836 22.8242C92.9648 22.8242 94.2109 22.5234 95.4219 21.9219C96.6406 21.3203 97.6133 20.457 98.3398 19.332V16.5781C98.3398 15.7344 98.1992 15.125 97.918 14.75C97.6758 14.4844 97.3672 14.2969 96.9922 14.1875C96.625 14.0781 96.168 14.0234 95.6211 14.0234H88.5781V13.6953H97.1562C97.9219 13.6953 98.5508 13.7461 99.043 13.8477C99.4727 13.9336 99.8555 14.1094 100.191 14.375C100.488 14.6641 100.672 15.0078 100.742 15.4062C100.82 15.8047 100.859 16.1953 100.859 16.5781V22.9883H98.3398V19.9297C97.5586 20.9688 96.5664 21.7656 95.3633 22.3203C94.168 22.875 92.9414 23.1523 91.6836 23.1523ZM93.8281 10.6484C94.7734 10.6484 95.5 10.3867 96.0078 9.86328C96.3516 9.48828 96.5234 9.06641 96.5234 8.59766C96.5234 8.08203 96.3359 7.60156 95.9609 7.15625C95.0781 6.125 93.6055 5.60938 91.543 5.60938C90.7695 5.60938 90.0508 5.68359 89.3867 5.83203C88.7305 5.98047 88.1172 6.23828 87.5469 6.60547C86.9844 6.97266 86.457 7.47656 85.9648 8.11719C86.1836 8.11719 86.4062 8.13672 86.6328 8.17578C87.5156 8.33984 88.3672 8.61328 89.1875 8.99609L90.1836 9.45312C91.2461 9.96094 92.0898 10.3047 92.7148 10.4844C93.0898 10.5938 93.4609 10.6484 93.8281 10.6484ZM112.613 23C111.715 23 111.266 22.4219 111.266 21.2656V19.0273C111.023 19.832 110.621 20.5586 110.059 21.207C108.973 22.3945 107.656 22.9883 106.109 22.9883C105.086 22.9883 104.242 22.6797 103.578 22.0625C102.852 21.3516 102.488 20.4883 102.488 19.4727C102.488 18.8008 102.664 18.168 103.016 17.5742C103.516 16.7773 104.223 16.2461 105.137 15.9805C106.395 15.6289 107.496 15.3789 108.441 15.2305C108.91 15.1523 109.391 15.0391 109.883 14.8906C110.383 14.7422 110.77 14.5039 111.043 14.1758C111.301 13.8008 111.43 13.3945 111.43 12.957C111.43 12.3945 111.227 11.9141 110.82 11.5156C110.383 11.1328 109.867 10.9414 109.273 10.9414C108.812 10.9414 108.461 11.043 108.219 11.2461C107.82 11.582 107.621 12.0352 107.621 12.6055C107.621 13.0352 107.738 13.4219 107.973 13.7656C107.457 13.7656 107.059 13.6562 106.777 13.4375C106.449 13.1875 106.285 12.8672 106.285 12.4766C106.285 12.2266 106.379 11.9609 106.566 11.6797C106.754 11.3984 107.078 11.1523 107.539 10.9414C108.008 10.7227 108.609 10.6133 109.344 10.6133C110.469 10.6133 111.352 10.8164 111.992 11.2227C112.594 11.6055 112.914 12.1523 112.953 12.8633C112.953 13.3398 112.801 13.7734 112.496 14.1641C112.09 14.6484 111.57 14.9531 110.938 15.0781C109.945 15.2656 108.781 15.5352 107.445 15.8867C106.539 16.1289 105.828 16.6211 105.312 17.3633C104.867 18.0586 104.645 18.8281 104.645 19.6719C104.645 20.4141 104.859 21.0898 105.289 21.6992C105.711 22.2461 106.254 22.5195 106.918 22.5195C107.34 22.5195 107.77 22.418 108.207 22.2148C109.551 21.5664 110.457 20.4961 110.926 19.0039C111.152 18.2695 111.266 17.4961 111.266 16.6836V15.9922C112.141 15.875 112.867 15.4727 113.445 14.7852V20.3984C113.445 21.0391 113.508 21.5078 113.633 21.8047C113.758 22.0938 114.043 22.2891 114.488 22.3906C113.902 22.7734 113.277 22.9766 112.613 23ZM118.496 23H116.316V13.2148C116.316 12.5664 116.254 12.0977 116.129 11.8086C116.004 11.5195 115.723 11.3203 115.285 11.2109C115.871 10.8281 116.492 10.6289 117.148 10.6133C118.047 10.6133 118.496 11.1914 118.496 12.3477V13.7422C118.691 13.1719 118.953 12.6523 119.281 12.1836C119.609 11.7148 120.008 11.3359 120.477 11.0469C120.953 10.7578 121.496 10.6133 122.105 10.6133C122.926 10.6133 123.594 10.7344 124.109 10.9766C124.625 11.2188 124.996 11.5195 125.223 11.8789C125.426 12.1914 125.527 12.5039 125.527 12.8164C125.527 12.8633 125.52 12.9844 125.504 13.1797C125.488 13.375 125.34 13.5977 125.059 13.8477C124.785 14.0898 124.398 14.2109 123.898 14.2109C123.953 13.9062 123.98 13.6211 123.98 13.3555C123.98 12.7617 123.797 12.2266 123.43 11.75C123.062 11.2656 122.523 11.0234 121.812 11.0234C120.875 11.0234 120.102 11.5039 119.492 12.4648C118.992 13.3242 118.66 14.2188 118.496 15.1484V23ZM132.336 30.0664C131.258 30.0664 130.387 29.9258 129.723 29.6445C129.066 29.3711 128.594 29.0312 128.305 28.625C128.047 28.2734 127.918 27.918 127.918 27.5586C127.918 27.5117 127.93 27.375 127.953 27.1484C127.977 26.9219 128.156 26.668 128.492 26.3867C128.828 26.1133 129.289 25.9766 129.875 25.9766C129.789 26.2969 129.746 26.5977 129.746 26.8789C129.746 27.5742 130.047 28.207 130.648 28.7773C131.25 29.3555 132.188 29.6445 133.461 29.6445C134.742 29.6445 135.945 29.2383 137.07 28.4258C138.039 27.7148 138.637 26.7695 138.863 25.5898C138.895 25.3945 138.91 25.2109 138.91 25.0391C138.91 24.4297 138.691 23.9023 138.254 23.457C137.816 23.0117 137.102 22.7891 136.109 22.7891C135.219 22.7891 133.883 23.1133 132.102 23.7617C130.352 24.418 129.035 24.7461 128.152 24.7461C127.348 24.7461 126.707 24.5859 126.23 24.2656C125.449 23.75 125.059 23.0312 125.059 22.1094C125.059 21.9609 125.086 21.7266 125.141 21.4062C125.203 21.0781 125.398 20.7227 125.727 20.3398C126.188 19.8008 126.828 19.5312 127.648 19.5312C127.797 19.5312 127.941 19.5391 128.082 19.5547C127.957 19.4453 127.836 19.3242 127.719 19.1914C126.828 18.1758 126.379 16.9883 126.371 15.6289C126.371 14.2773 126.816 13.0898 127.707 12.0664C128.707 10.9883 130.035 10.4492 131.691 10.4492C132.559 10.4492 133.383 10.6172 134.164 10.9531C133.859 10.4453 133.707 9.94922 133.707 9.46484C133.707 9.23047 133.777 8.875 133.918 8.39844C134.066 7.92187 134.59 7.57031 135.488 7.34375C135.691 7.3125 135.895 7.29688 136.098 7.29688C136.668 7.29688 137.219 7.42578 137.75 7.68359L137.855 7.73047L137.738 9.3125L137.504 9.14844C136.902 8.72656 136.285 8.51562 135.652 8.51562C135.262 8.51562 134.938 8.60547 134.68 8.78516C134.312 9.03516 134.129 9.39062 134.129 9.85156C134.129 9.85938 134.129 9.98438 134.129 10.2266C134.137 10.4688 134.43 10.8789 135.008 11.457C135.25 11.6367 135.477 11.8398 135.688 12.0664C136.57 13.0898 137.016 14.2773 137.023 15.6289C137.016 16.9883 136.562 18.1758 135.664 19.1914C134.711 20.2227 133.469 20.7617 131.938 20.8086V20.8203H131.457V20.8086C130.465 20.7773 129.555 20.5156 128.727 20.0234C128.391 19.9062 128.043 19.8477 127.684 19.8477C126.809 19.8477 126.176 20.1836 125.785 20.8555C125.668 21.0586 125.609 21.2617 125.609 21.4648C125.609 21.7539 125.727 22.0508 125.961 22.3555C126.422 22.8555 127.152 23.1055 128.152 23.1055C128.934 23.1055 130.18 22.7852 131.891 22.1445C132.562 21.8945 133.246 21.668 133.941 21.4648C134.684 21.2617 135.336 21.1602 135.898 21.1602C136.695 21.1602 137.359 21.3828 137.891 21.8281C138.43 22.2734 138.809 22.8359 139.027 23.5156C139.176 23.9609 139.25 24.4219 139.25 24.8984C139.25 25.1406 139.23 25.3867 139.191 25.6367C138.949 26.9023 138.305 27.9219 137.258 28.6953C135.992 29.6094 134.352 30.0664 132.336 30.0664ZM131.727 20.4922C133.781 20.4141 134.809 18.7461 134.809 15.4883C134.809 12.3477 133.77 10.7773 131.691 10.7773C130.496 10.7773 129.652 11.3047 129.16 12.3594C128.77 13.1797 128.574 14.2383 128.574 15.5352C128.574 18.7461 129.605 20.3984 131.668 20.4922H131.727ZM148.988 23C148.09 23 147.641 22.4219 147.641 21.2656V19.0273C147.398 19.832 146.996 20.5586 146.434 21.207C145.348 22.3945 144.031 22.9883 142.484 22.9883C141.461 22.9883 140.617 22.6797 139.953 22.0625C139.227 21.3516 138.863 20.4883 138.863 19.4727C138.863 18.8008 139.039 18.168 139.391 17.5742C139.891 16.7773 140.598 16.2461 141.512 15.9805C142.77 15.6289 143.871 15.3789 144.816 15.2305C145.285 15.1523 145.766 15.0391 146.258 14.8906C146.758 14.7422 147.145 14.5039 147.418 14.1758C147.676 13.8008 147.805 13.3945 147.805 12.957C147.805 12.3945 147.602 11.9141 147.195 11.5156C146.758 11.1328 146.242 10.9414 145.648 10.9414C145.188 10.9414 144.836 11.043 144.594 11.2461C144.195 11.582 143.996 12.0352 143.996 12.6055C143.996 13.0352 144.113 13.4219 144.348 13.7656C143.832 13.7656 143.434 13.6562 143.152 13.4375C142.824 13.1875 142.66 12.8672 142.66 12.4766C142.66 12.2266 142.754 11.9609 142.941 11.6797C143.129 11.3984 143.453 11.1523 143.914 10.9414C144.383 10.7227 144.984 10.6133 145.719 10.6133C146.844 10.6133 147.727 10.8164 148.367 11.2227C148.969 11.6055 149.289 12.1523 149.328 12.8633C149.328 13.3398 149.176 13.7734 148.871 14.1641C148.465 14.6484 147.945 14.9531 147.312 15.0781C146.32 15.2656 145.156 15.5352 143.82 15.8867C142.914 16.1289 142.203 16.6211 141.688 17.3633C141.242 18.0586 141.02 18.8281 141.02 19.6719C141.02 20.4141 141.234 21.0898 141.664 21.6992C142.086 22.2461 142.629 22.5195 143.293 22.5195C143.715 22.5195 144.145 22.418 144.582 22.2148C145.926 21.5664 146.832 20.4961 147.301 19.0039C147.527 18.2695 147.641 17.4961 147.641 16.6836V15.9922C148.516 15.875 149.242 15.4727 149.82 14.7852V20.3984C149.82 21.0391 149.883 21.5078 150.008 21.8047C150.133 22.0938 150.418 22.2891 150.863 22.3906C150.277 22.7734 149.652 22.9766 148.988 23ZM163.379 23H161.199V14.6445C161.199 13.543 161.059 12.7148 160.777 12.1602C160.395 11.418 159.672 11.0469 158.609 11.0469C158.133 11.0469 157.652 11.168 157.168 11.4102C156.691 11.6523 156.262 12.0195 155.879 12.5117C155.363 13.207 155.027 14.0234 154.871 14.9609V23H152.691V13.2148C152.691 12.5664 152.629 12.0977 152.504 11.8086C152.379 11.5195 152.098 11.3203 151.66 11.2109C152.246 10.8281 152.867 10.6289 153.523 10.6133C154.422 10.6133 154.871 11.1914 154.871 12.3477V13.6836C155.051 13.1914 155.297 12.7383 155.609 12.3242C156.484 11.1836 157.684 10.6133 159.207 10.6133C159.973 10.6133 160.672 10.7383 161.305 10.9883C161.938 11.2383 162.441 11.6445 162.816 12.207C163.191 12.7617 163.379 13.5 163.379 14.4219V23ZM169.801 23C168.27 23 167.223 22.4102 166.66 21.2305C166.395 20.6758 166.262 20.0352 166.262 19.3086V10.9414H164.949V10.6133C165.52 10.6133 165.953 10.4961 166.25 10.2617C166.656 9.94141 166.859 9.51172 166.859 8.97266C166.859 8.37891 166.66 7.88281 166.262 7.48438C166.613 7.3125 166.926 7.22656 167.199 7.22656C167.824 7.22656 168.223 7.55078 168.395 8.19922C168.426 8.33203 168.441 8.46875 168.441 8.60938C168.441 9.48438 167.918 10.1523 166.871 10.6133H170.891V10.9414H168.441V19.3086C168.441 19.8242 168.488 20.3281 168.582 20.8203C168.676 21.3125 168.863 21.7188 169.145 22.0391C169.434 22.3594 169.867 22.5195 170.445 22.5195C170.953 22.5195 171.461 22.3867 171.969 22.1211V22.5078C171.312 22.8359 170.59 23 169.801 23ZM183.113 23H180.934V20.3398C180.777 20.6758 180.59 20.9883 180.371 21.2773C179.496 22.4258 178.297 23 176.773 23C176.008 23 175.309 22.875 174.676 22.625C174.043 22.3672 173.539 21.9609 173.164 21.4062C172.789 20.8438 172.602 20.1016 172.602 19.1797V13.2148C172.602 12.5664 172.535 12.0977 172.402 11.8086C172.277 11.5195 171.996 11.3203 171.559 11.2109C172.145 10.8281 172.77 10.6289 173.434 10.6133C174.332 10.6133 174.781 11.1914 174.781 12.3477V18.9688C174.781 20.0625 174.922 20.8867 175.203 21.4414C175.586 22.1914 176.309 22.5664 177.371 22.5664C177.848 22.5664 178.324 22.4453 178.801 22.2031C179.285 21.9531 179.715 21.582 180.09 21.0898C180.465 20.5977 180.746 20.0352 180.934 19.4023V13.2148C180.934 12.5664 180.871 12.0977 180.746 11.8086C180.621 11.5195 180.34 11.3203 179.902 11.2109C180.488 10.8281 181.113 10.6289 181.777 10.6133C182.668 10.6133 183.113 11.1914 183.113 12.3477V23ZM195.137 23C194.238 23 193.789 22.4219 193.789 21.2656V19.0273C193.547 19.832 193.145 20.5586 192.582 21.207C191.496 22.3945 190.18 22.9883 188.633 22.9883C187.609 22.9883 186.766 22.6797 186.102 22.0625C185.375 21.3516 185.012 20.4883 185.012 19.4727C185.012 18.8008 185.188 18.168 185.539 17.5742C186.039 16.7773 186.746 16.2461 187.66 15.9805C188.918 15.6289 190.02 15.3789 190.965 15.2305C191.434 15.1523 191.914 15.0391 192.406 14.8906C192.906 14.7422 193.293 14.5039 193.566 14.1758C193.824 13.8008 193.953 13.3945 193.953 12.957C193.953 12.3945 193.75 11.9141 193.344 11.5156C192.906 11.1328 192.391 10.9414 191.797 10.9414C191.336 10.9414 190.984 11.043 190.742 11.2461C190.344 11.582 190.145 12.0352 190.145 12.6055C190.145 13.0352 190.262 13.4219 190.496 13.7656C189.98 13.7656 189.582 13.6562 189.301 13.4375C188.973 13.1875 188.809 12.8672 188.809 12.4766C188.809 12.2266 188.902 11.9609 189.09 11.6797C189.277 11.3984 189.602 11.1523 190.062 10.9414C190.531 10.7227 191.133 10.6133 191.867 10.6133C192.992 10.6133 193.875 10.8164 194.516 11.2227C195.117 11.6055 195.438 12.1523 195.477 12.8633C195.477 13.3398 195.324 13.7734 195.02 14.1641C194.613 14.6484 194.094 14.9531 193.461 15.0781C192.469 15.2656 191.305 15.5352 189.969 15.8867C189.062 16.1289 188.352 16.6211 187.836 17.3633C187.391 18.0586 187.168 18.8281 187.168 19.6719C187.168 20.4141 187.383 21.0898 187.812 21.6992C188.234 22.2461 188.777 22.5195 189.441 22.5195C189.863 22.5195 190.293 22.418 190.73 22.2148C192.074 21.5664 192.98 20.4961 193.449 19.0039C193.676 18.2695 193.789 17.4961 193.789 16.6836V15.9922C194.664 15.875 195.391 15.4727 195.969 14.7852V20.3984C195.969 21.0391 196.031 21.5078 196.156 21.8047C196.281 22.0938 196.566 22.2891 197.012 22.3906C196.426 22.7734 195.801 22.9766 195.137 23ZM213.781 15.2188C214.617 14.0859 215.035 12.7969 215.035 11.3516C215.035 9.88281 214.629 8.61328 213.816 7.54297C212.895 6.37891 211.684 5.79297 210.184 5.78516C208.965 5.86328 207.832 6.22266 206.785 6.86328V14.3633C207.223 13.8555 207.871 13.6016 208.73 13.6016C209.332 13.6016 210.262 13.875 211.52 14.4219C212.379 14.8125 213.133 15.0781 213.781 15.2188ZM206.785 22.9883H204.605V5.44531H206.785V6.47656C207.355 6.14062 207.969 5.88672 208.625 5.71484C209.289 5.53516 209.938 5.44531 210.57 5.44531C212.656 5.44531 214.355 6.07422 215.668 7.33203C216.801 8.48047 217.387 9.86328 217.426 11.4805C217.426 13.1055 216.852 14.4922 215.703 15.6406C214.375 16.8984 212.609 17.5273 210.406 17.5273C208.664 17.5273 207.457 17.082 206.785 16.1914V22.9883ZM209.762 17.1172C210.121 17.1172 210.66 17.0352 211.379 16.8711C212.105 16.6992 212.824 16.2422 213.535 15.5C212.934 15.3516 212.223 15.0938 211.402 14.7266L210.324 14.293C209.676 14.0508 209.145 13.9297 208.73 13.9297C208.059 13.9297 207.535 14.1016 207.16 14.4453C206.918 14.6797 206.797 14.9453 206.797 15.2422C206.797 15.8281 207.141 16.2969 207.828 16.6484C208.445 16.9609 209.09 17.1172 209.762 17.1172ZM221.785 23H219.605V13.2148C219.605 12.5664 219.543 12.0977 219.418 11.8086C219.293 11.5195 219.012 11.3203 218.574 11.2109C219.16 10.8281 219.781 10.6289 220.438 10.6133C221.336 10.6133 221.785 11.1914 221.785 12.3477V13.7422C221.98 13.1719 222.242 12.6523 222.57 12.1836C222.898 11.7148 223.297 11.3359 223.766 11.0469C224.242 10.7578 224.785 10.6133 225.395 10.6133C226.215 10.6133 226.883 10.7344 227.398 10.9766C227.914 11.2188 228.285 11.5195 228.512 11.8789C228.715 12.1914 228.816 12.5039 228.816 12.8164C228.816 12.8633 228.809 12.9844 228.793 13.1797C228.777 13.375 228.629 13.5977 228.348 13.8477C228.074 14.0898 227.688 14.2109 227.188 14.2109C227.242 13.9062 227.27 13.6211 227.27 13.3555C227.27 12.7617 227.086 12.2266 226.719 11.75C226.352 11.2656 225.812 11.0234 225.102 11.0234C224.164 11.0234 223.391 11.5039 222.781 12.4648C222.281 13.3242 221.949 14.2188 221.785 15.1484V23ZM236.023 23.1641H235.496V23.1523C233.605 23.0898 232.07 22.4297 230.891 21.1719C229.789 19.9219 229.238 18.4648 229.238 16.8008C229.238 15.1445 229.781 13.6875 230.867 12.4297C232.102 11.1094 233.734 10.4492 235.766 10.4492C237.789 10.4492 239.418 11.1094 240.652 12.4297C241.738 13.6875 242.285 15.1445 242.293 16.8008C242.285 18.4648 241.73 19.9219 240.629 21.1719C239.449 22.4297 237.914 23.0898 236.023 23.1523V23.1641ZM235.766 22.8359C236.797 22.8047 237.633 22.5352 238.273 22.0273C238.922 21.5117 239.395 20.8008 239.691 19.8945C239.988 18.9883 240.137 17.9453 240.137 16.7656C240.137 15.6328 239.977 14.6133 239.656 13.707C239.336 12.8008 238.852 12.0859 238.203 11.5625C237.555 11.0391 236.742 10.7773 235.766 10.7773C234.766 10.7773 233.941 11.0234 233.293 11.5156C232.645 12 232.164 12.6914 231.852 13.5898C231.539 14.4883 231.383 15.543 231.383 16.7539C231.383 17.9023 231.531 18.9336 231.828 19.8477C232.133 20.7539 232.609 21.4727 233.258 22.0039C233.906 22.5273 234.742 22.8047 235.766 22.8359ZM245.68 9.05469C245.18 9.05469 244.805 8.91016 244.555 8.62109C244.312 8.32422 244.191 7.98828 244.191 7.61328C244.191 7.23047 244.316 6.89453 244.566 6.60547C244.816 6.30859 245.188 6.16016 245.68 6.16016C246.172 6.16016 246.543 6.30859 246.793 6.60547C247.043 6.89453 247.168 7.23047 247.168 7.61328C247.168 7.98828 247.043 8.32422 246.793 8.62109C246.551 8.91016 246.18 9.05469 245.68 9.05469ZM242.422 27.3711C241.633 27.3711 240.91 27.207 240.254 26.8789V26.4922C240.762 26.7578 241.27 26.8906 241.777 26.8906C242.348 26.8906 242.828 26.7305 243.219 26.4102C243.617 26.0898 243.914 25.6836 244.109 25.1914C244.312 24.6992 244.414 24.1953 244.414 23.6797V10.6133H246.594V23.6797C246.594 24.4062 246.406 25.0469 246.031 25.6016C245.664 26.1562 245.164 26.5898 244.531 26.9023C243.906 27.2148 243.203 27.3711 242.422 27.3711ZM256.227 23.2227C255.047 23.2227 253.895 22.9961 252.77 22.543C251.652 22.0898 250.73 21.3906 250.004 20.4453C249.285 19.4922 248.926 18.2773 248.926 16.8008C248.926 14.8008 249.66 13.2148 251.129 12.043C252.418 10.9805 253.945 10.4492 255.711 10.4492C257.477 10.4492 258.867 10.9258 259.883 11.8789C260.906 12.832 261.523 14.1445 261.734 15.8164L261.758 15.9922H258.254C256.488 15.9922 255.012 16.4453 253.824 17.3516C252.777 18.1797 252.227 19.2539 252.172 20.5742C253.125 22.1289 254.531 22.9062 256.391 22.9062C257.383 22.9062 258.211 22.6758 258.875 22.2148C259.539 21.7461 260.223 20.9062 260.926 19.6953L261.594 20.2227C261.047 21.1523 260.277 21.8984 259.285 22.4609C258.395 22.9688 257.375 23.2227 256.227 23.2227ZM251.879 20.0234C252.066 18.8359 252.648 17.8594 253.625 17.0938C254.852 16.1406 256.395 15.6641 258.254 15.6641H260C259.82 14.4062 259.367 13.3047 258.641 12.3594C257.82 11.2891 256.809 10.7539 255.605 10.7539C254.863 10.7539 254.219 10.9414 253.672 11.3164C253.125 11.6914 252.672 12.1758 252.312 12.7695C251.953 13.3633 251.684 14.0078 251.504 14.7031C251.324 15.3906 251.234 16.0508 251.234 16.6836C251.234 18.0273 251.449 19.1406 251.879 20.0234ZM270.336 23.2227C269.148 23.2227 267.996 22.9961 266.879 22.543C265.762 22.0898 264.844 21.3906 264.125 20.4453C263.414 19.4922 263.051 18.2773 263.035 16.8008C263.051 15.5742 263.352 14.4844 263.938 13.5312C264.531 12.5781 265.32 11.8281 266.305 11.2812C267.297 10.7266 268.395 10.4492 269.598 10.4492C270.637 10.4492 271.477 10.582 272.117 10.8477C272.758 11.1133 273.219 11.4375 273.5 11.8203C273.75 12.1562 273.875 12.4961 273.875 12.8398C273.875 12.8867 273.859 13.0195 273.828 13.2383C273.805 13.4492 273.629 13.6875 273.301 13.9531C272.973 14.2188 272.52 14.3516 271.941 14.3516C272.113 13.9375 272.199 13.5273 272.199 13.1211C272.199 12.9727 272.168 12.7227 272.105 12.3711C272.043 12.0195 271.797 11.6641 271.367 11.3047C270.945 10.9375 270.363 10.7539 269.621 10.7539C268.895 10.7539 268.262 10.9453 267.723 11.3281C267.191 11.7031 266.746 12.1914 266.387 12.793C266.035 13.3945 265.773 14.0391 265.602 14.7266C265.43 15.4141 265.344 16.0664 265.344 16.6836C265.344 17.7617 265.484 18.6914 265.766 19.4727C266.297 20.9727 267.211 21.9922 268.508 22.5312C269.109 22.7812 269.77 22.9062 270.488 22.9062C271.496 22.9062 272.367 22.6719 273.102 22.2031C273.844 21.7344 274.512 20.8984 275.105 19.6953L275.703 20.2227C274.367 22.2227 272.578 23.2227 270.336 23.2227ZM280.73 23C279.199 23 278.152 22.4102 277.59 21.2305C277.324 20.6758 277.191 20.0352 277.191 19.3086V10.9414H275.879V10.6133C276.449 10.6133 276.883 10.4961 277.18 10.2617C277.586 9.94141 277.789 9.51172 277.789 8.97266C277.789 8.37891 277.59 7.88281 277.191 7.48438C277.543 7.3125 277.855 7.22656 278.129 7.22656C278.754 7.22656 279.152 7.55078 279.324 8.19922C279.355 8.33203 279.371 8.46875 279.371 8.60938C279.371 9.48438 278.848 10.1523 277.801 10.6133H281.82V10.9414H279.371V19.3086C279.371 19.8242 279.418 20.3281 279.512 20.8203C279.605 21.3125 279.793 21.7188 280.074 22.0391C280.363 22.3594 280.797 22.5195 281.375 22.5195C281.883 22.5195 282.391 22.3867 282.898 22.1211V22.5078C282.242 22.8359 281.52 23 280.73 23Z" fill="#2C2C2C"/>
<defs>
<clipPath id="clip0_97_968">
<rect width="65" height="32" fill="white" transform="matrix(1 0 0 -1 0 32)"/>
</clipPath>
</defs>
</svg>
