<svg width="197" height="30" viewBox="0 0 197 30" fill="none" xmlns="http://www.w3.org/2000/svg">
<g clip-path="url(#clip0_61_318)">
<path d="M42.8982 17.9797L42.9057 17.986C42.9057 17.986 42.8994 17.9835 42.8982 17.981V17.9797Z" fill="white"/>
<path d="M42.8982 17.9797C42.8597 17.8653 42.7738 17.7434 42.7975 17.639C43.2679 15.0918 43.0571 12.4638 42.1868 10.0265C41.9119 9.23319 41.9132 9.23193 41.0114 9.38154C42.5363 13.2186 42.5636 17.0506 40.8522 20.8223C39.1408 24.594 36.274 27.155 32.3624 28.372C26.3998 30.2264 19.5853 28.0401 16.9398 23.7202C16.9498 23.7202 16.9672 23.7051 16.9709 23.7089C17.0406 23.7705 17.1115 23.8346 17.1761 23.8988C19.0965 25.8827 21.4136 26.8092 24.1636 26.5754C24.4087 26.5479 24.6497 26.4905 24.8812 26.4044C25.416 26.2196 25.9496 26.0272 26.4745 25.8135C27.1722 25.5256 27.8724 25.2377 28.549 24.9045C28.9134 24.726 29.207 24.3916 29.5776 24.2382C29.7939 24.1521 29.9881 24.0177 30.1458 23.8451C30.3034 23.6724 30.4204 23.466 30.488 23.2412C30.59 22.947 30.6273 22.6302 30.7231 22.3335C30.7691 22.1902 30.8475 22.0054 30.9719 21.9475C32.4465 21.2011 34.0179 20.6687 35.6397 20.3659C36.2329 20.2616 36.7292 20.2402 36.8959 21.0801C37.218 20.063 37.9891 19.8869 38.9145 19.7336C38.019 19.4582 37.1732 19.3287 36.9033 18.3003C36.845 18.5523 36.7248 18.7854 36.5537 18.9779C36.3826 19.1704 36.1662 19.3162 35.9245 19.4017C35.4407 19.5902 34.9494 19.7562 34.4656 19.9473C33.3673 20.3798 32.2716 20.8273 31.1758 21.2611C31.0092 21.3277 30.8475 21.4094 30.6783 21.4836C30.5627 21.2787 30.4719 21.119 30.3736 20.943C30.0701 21.1241 29.7978 21.3064 29.5092 21.4547C29.2207 21.6031 28.9371 21.7062 28.651 21.8319L28.5814 21.6747C28.6647 21.6156 28.7431 21.549 28.8301 21.4987C30.1517 20.7295 31.3666 19.7868 32.4432 18.6951C33.3138 17.8025 34.2205 16.935 35.1235 16.0725C35.5812 15.635 36.0688 15.2289 36.5725 14.7826C36.7093 15.0051 36.8076 15.1598 36.9145 15.3408C37.2628 14.5337 37.5202 14.3715 38.8958 14.0836C38.065 13.8321 37.172 13.7227 36.9058 12.6453C36.6086 13.7492 35.677 13.8485 34.8151 14.0987L35.825 14.3187L29.7206 20.156L29.1224 19.7562C29.13 19.7128 29.1429 19.6706 29.161 19.6305C29.2318 19.5462 29.309 19.4695 29.3799 19.3866C30.605 17.9458 31.5191 16.3416 31.9059 14.4633C32.0999 13.5178 32.279 13.3192 33.2342 13.1369C33.3661 13.113 33.4992 13.0992 33.7479 13.064C32.8524 12.7974 31.9793 12.673 31.692 11.6735C31.3786 12.4278 31.3786 12.4278 29.6759 13.0564C30.0686 13.1418 30.4554 13.2531 30.8338 13.3896C30.9191 13.4395 30.9914 13.5092 31.0448 13.5929C31.0982 13.6766 31.1312 13.772 31.141 13.8711C31.0166 16.5251 29.85 18.7114 28.1199 20.635C28.0344 20.7 27.9385 20.7498 27.8364 20.7821L27.7966 20.7129L28.697 19.6028C28.1933 19.3162 27.8476 19.3363 27.4359 19.7285C26.9856 20.1497 26.4036 20.4288 25.8787 20.7695L25.8265 20.7054C25.8613 20.6363 25.8949 20.5671 25.9794 20.3961C25.6946 20.5608 25.4919 20.6664 25.3028 20.7921C24.9645 21.0147 24.6548 21.295 24.2942 21.4685C23.7481 21.7313 23.2394 22.0368 22.8402 22.4919C22.3091 23.0979 22.1176 23.807 22.375 24.594C22.6325 25.381 23.1039 25.977 23.9832 26.109C24.278 26.1542 24.5715 26.2045 24.8663 26.2523C24.8663 26.2938 24.8725 26.3365 24.8762 26.378C24.5852 26.4032 24.2805 26.4962 24.0056 26.4396C22.936 26.2221 22.3663 25.4602 22.1238 24.4507C21.8813 23.4411 22.3278 22.6503 23.0666 21.9991L23.4049 21.7049C22.7158 21.7049 22.089 21.7338 21.4671 21.7049C19.839 21.6144 18.5318 20.9141 17.6736 19.4909C17.2205 18.7412 16.8159 17.9626 16.4622 17.16C16.1886 16.5314 16.0319 15.86 15.8068 15.1484C15.124 15.4615 14.4498 15.7771 13.7683 16.0788C13.5195 16.1894 13.4362 16.3478 13.4586 16.6244C13.614 18.5203 14.0307 20.3483 14.8528 22.0657C15.1874 22.766 15.5792 23.4374 15.9535 24.1401L14.3031 24.2445C14.7463 24.3301 15.1991 24.3543 15.6488 24.3162C16.0219 24.2797 16.2222 24.4545 16.466 24.7097C17.2421 25.5193 17.9809 26.4006 18.8776 27.0494C22.87 29.941 27.3351 30.6815 32.0116 29.4054C37.5439 27.8967 41.0512 24.1842 42.596 18.5933C42.6392 18.4611 42.6976 18.3345 42.7701 18.2161C42.8112 18.1407 42.8534 18.0665 42.8945 17.991L42.9019 17.9973C42.9019 17.9973 42.9019 17.9973 42.9019 17.9898L42.8982 17.9797ZM30.0154 22.3624C30.0316 22.4316 30.0465 22.502 30.0627 22.5711L28.8811 22.7811L28.8475 22.6076L30.0154 22.3624ZM25.676 24.9372C24.8538 24.6078 24.3551 23.4939 24.5205 22.3775C24.5354 23.377 24.8402 24.2483 25.676 24.9372ZM22.8564 23.1771C22.7594 24.0207 23.0504 24.7373 23.584 25.42C22.8924 25.0303 22.538 23.9252 22.8589 23.1759L22.8564 23.1771ZM24.681 24.5135C24.3439 23.9578 24.1113 23.367 24.1548 22.6918C24.1485 22.54 24.1251 22.3895 24.0852 22.243L23.8626 22.4555C23.8725 22.7786 23.8626 23.1042 23.8974 23.4248C23.9792 24.1442 24.3043 24.8131 24.8178 25.3182C23.9471 24.6694 23.6113 23.7844 23.722 22.7031C23.4621 23.3406 23.6648 23.9428 23.8986 24.5425L23.7357 24.5789C23.6001 24.0421 23.4633 23.5065 23.3439 23.0325C23.2108 23.8258 23.5516 24.5412 24.1039 25.244C23.5491 24.9272 23.1922 24.1515 23.1325 23.4034C23.0802 22.7421 23.3265 22.282 23.8787 21.9538C24.0703 21.8382 24.0976 21.857 24.1113 22.1324C24.2233 21.9991 24.3352 21.8658 24.4459 21.7313L24.564 21.7652C24.1088 22.9571 24.4148 23.9843 25.0976 24.9737C24.9444 24.8342 24.8049 24.6801 24.681 24.5135Z" fill="#2C2C2C"/>
<path d="M42.0391 8.70491C42.1454 8.70818 42.2516 8.69718 42.355 8.67222L42.0391 8.70491ZM41.4011 8.18693C40.0031 5.42103 37.9745 3.25482 35.2619 1.79643C32.6965 0.390855 29.7755 -0.211754 26.8703 0.0652312C19.8842 0.693846 14.1915 6.25709 13.5273 13.3504C13.4179 14.5083 12.9751 14.9383 12.0162 15.3531C9.44906 16.4645 6.91678 17.6677 4.40812 18.9111C3.15442 19.5322 1.95669 20.2941 1.03631 21.3929C0.165681 22.4414 0.351001 23.1052 1.64699 23.4748C4.43051 24.2682 7.29612 24.2455 10.1418 24.2971C9.14683 24.2153 8.15182 24.1827 7.17175 24.0381C6.01967 23.8804 4.87794 23.6533 3.75267 23.3579C2.87084 23.1165 2.6818 22.4678 3.23527 21.7235C3.60685 21.2017 4.05866 20.7433 4.57354 20.3657C5.63447 19.6315 6.72026 18.9073 7.87073 18.3328C10.9615 16.7914 14.0895 15.3255 17.3133 14.0808C23.0744 11.8618 28.9884 10.2714 35.099 9.43662C37.3726 9.12608 39.6636 8.94504 42.0453 8.7024C41.7207 8.68983 41.5553 8.48867 41.4011 8.18693ZM15.638 13.8042C15.638 12.6539 15.5559 11.5727 15.6529 10.509C15.9253 7.53317 17.6342 5.42731 19.9016 3.72C21.4957 2.51319 23.3277 1.66657 25.2736 1.23742C27.2195 0.808265 29.2339 0.806589 31.1805 1.2325C33.1271 1.65841 34.9605 2.50197 36.5566 3.70612C38.1528 4.91027 39.4744 6.4469 40.4322 8.21208C40.5056 8.34786 40.5653 8.49118 40.6722 8.71497C32.1116 9.04463 23.6591 10.763 15.638 13.8042Z" fill="#2C2C2C"/>
<path d="M42.8982 17.9797H42.9293L42.9044 17.9898L42.897 17.9835L42.8982 17.9797Z" fill="#2C2C2C"/>
<path d="M56.3096 11.9021C56.0238 12.4977 55.5804 13.0016 55.0286 13.358C53.6509 14.3025 52.1514 15.0512 50.5722 15.5833C48.2638 16.3678 45.9467 17.1272 43.6296 17.8853C43.4199 17.9379 43.2051 17.967 42.989 17.972H42.9355C46.0275 16.7626 49.0648 15.4312 51.9528 13.7704C52.7177 13.3316 53.4216 12.8388 53.837 12.0102C54.3109 11.0661 54.1405 10.2237 53.1679 9.81387C52.207 9.42316 51.2057 9.14272 50.1829 8.97781C49.0722 8.78797 47.9329 8.77037 46.9591 8.69116C49.2575 8.70373 51.7164 8.70122 54.1268 9.25692C54.715 9.39468 55.2787 9.6228 55.7984 9.93331C56.5285 10.3821 56.6716 11.1088 56.3096 11.9021Z" fill="#2C2C2C"/>
</g>
<path d="M81.1602 20.627C79.806 20.627 78.6146 20.4186 77.5859 20.002C76.5638 19.5853 75.7077 19.0286 75.0176 18.332C74.3275 17.6289 73.8066 16.8411 73.4551 15.9688C73.084 15.0638 72.8984 14.1068 72.8984 13.0977C72.8984 12.2057 73.0579 11.3268 73.377 10.4609C73.696 9.59505 74.194 8.80404 74.8711 8.08789C75.5482 7.37174 76.401 6.80208 77.4297 6.37891C78.4583 5.94922 79.6628 5.73438 81.043 5.73438C82.8529 5.73438 84.1549 6.20312 84.9492 7.14062C85.2943 7.55078 85.4668 8.00651 85.4668 8.50781C85.4668 8.96354 85.3008 9.3737 84.9688 9.73828C84.487 10.2331 83.8132 10.4805 82.9473 10.4805C82.6217 10.4805 82.2962 10.4316 81.9707 10.334C81.4434 10.1842 80.7174 9.89453 79.793 9.46484C79.5195 9.33464 79.2428 9.20768 78.9629 9.08398C77.9603 8.60872 77.0749 8.37109 76.3066 8.37109H76.1895C76.0853 8.51432 75.9909 8.66406 75.9062 8.82031C75.2161 10.0508 74.8711 11.444 74.8711 13C74.8711 13.9766 75.0241 14.9303 75.3301 15.8613C75.61 16.7077 76.0137 17.4694 76.541 18.1465C77.0749 18.8171 77.7259 19.3542 78.4941 19.7578C79.2689 20.1549 80.1576 20.3535 81.1602 20.3535C82.2995 20.3535 83.4062 20.0671 84.4805 19.4941C85.5938 18.9017 86.4303 18.0456 86.9902 16.9258L87.2344 17.043L87.1758 17.1699C86.5898 18.2767 85.737 19.1296 84.6172 19.7285C83.5039 20.3275 82.3516 20.627 81.1602 20.627ZM82.9473 10.207C83.735 10.207 84.3405 9.98893 84.7637 9.55273C85.0501 9.24023 85.1934 8.88867 85.1934 8.49805C85.1934 8.38086 85.1803 8.26042 85.1543 8.13672C85.0046 7.53776 84.6172 7.05599 83.9922 6.69141C83.2109 6.23568 82.2279 6.00781 81.043 6.00781C80.3984 6.00781 79.7995 6.06966 79.2461 6.19336C78.6992 6.31706 78.1882 6.5319 77.7129 6.83789C77.2441 7.14388 76.8014 7.5638 76.3848 8.09766C76.5736 8.09766 76.7624 8.11393 76.9512 8.14648C77.6868 8.2832 78.3965 8.51107 79.0801 8.83008C80.2454 9.36393 80.9258 9.67318 81.1211 9.75781C81.8372 10.0573 82.446 10.207 82.9473 10.207ZM93.4746 20.6367H93.0352V20.627C91.4596 20.5749 90.1803 20.0247 89.1973 18.9766C88.2793 17.9349 87.8203 16.7207 87.8203 15.334C87.8203 13.9538 88.2728 12.7396 89.1777 11.6914C90.2064 10.5911 91.5671 10.041 93.2598 10.041C94.946 10.041 96.3034 10.5911 97.332 11.6914C98.237 12.7396 98.6927 13.9538 98.6992 15.334C98.6927 16.7207 98.2305 17.9349 97.3125 18.9766C96.3294 20.0247 95.0501 20.5749 93.4746 20.627V20.6367ZM93.2598 20.3633C94.1191 20.3372 94.8158 20.1126 95.3496 19.6895C95.89 19.2598 96.2839 18.6673 96.5312 17.9121C96.7786 17.1569 96.9023 16.2878 96.9023 15.3047C96.9023 14.3607 96.7689 13.5111 96.502 12.7559C96.235 12.0007 95.8314 11.4049 95.291 10.9688C94.7507 10.5326 94.0736 10.3145 93.2598 10.3145C92.4264 10.3145 91.7396 10.5195 91.1992 10.9297C90.6589 11.3333 90.2585 11.9095 89.998 12.6582C89.7376 13.4069 89.6074 14.2858 89.6074 15.2949C89.6074 16.252 89.7311 17.1113 89.9785 17.873C90.2324 18.6283 90.6296 19.2272 91.1699 19.6699C91.7103 20.1061 92.4069 20.3372 93.2598 20.3633ZM109.52 20.5H107.703V13.5371C107.703 12.6191 107.586 11.929 107.352 11.4668C107.033 10.8483 106.43 10.5391 105.545 10.5391C105.148 10.5391 104.747 10.64 104.344 10.8418C103.947 11.0436 103.589 11.3496 103.27 11.7598C102.84 12.3392 102.56 13.0195 102.43 13.8008V20.5H100.613V12.3457C100.613 11.8053 100.561 11.4147 100.457 11.1738C100.353 10.9329 100.118 10.7669 99.7539 10.6758C100.242 10.3568 100.76 10.1908 101.307 10.1777C102.055 10.1777 102.43 10.6595 102.43 11.623V12.7363C102.579 12.3262 102.785 11.9486 103.045 11.6035C103.774 10.653 104.773 10.1777 106.043 10.1777C106.681 10.1777 107.264 10.2819 107.791 10.4902C108.318 10.6986 108.738 11.0371 109.051 11.5059C109.363 11.9681 109.52 12.5833 109.52 13.3516V20.5ZM117.244 20.6855C116.255 20.6855 115.294 20.4967 114.363 20.1191C113.432 19.7415 112.667 19.1589 112.068 18.3711C111.476 17.5768 111.173 16.5645 111.16 15.334C111.173 14.3118 111.424 13.4036 111.912 12.6094C112.407 11.8151 113.064 11.1901 113.885 10.7344C114.712 10.2721 115.626 10.041 116.629 10.041C117.495 10.041 118.195 10.1517 118.729 10.373C119.262 10.5944 119.646 10.8646 119.881 11.1836C120.089 11.4635 120.193 11.7467 120.193 12.0332C120.193 12.0723 120.18 12.1829 120.154 12.3652C120.135 12.541 119.988 12.7396 119.715 12.9609C119.441 13.1823 119.064 13.293 118.582 13.293C118.725 12.9479 118.797 12.6061 118.797 12.2676C118.797 12.1439 118.771 11.9355 118.719 11.6426C118.667 11.3496 118.462 11.0534 118.104 10.7539C117.752 10.4479 117.267 10.2949 116.648 10.2949C116.043 10.2949 115.516 10.4544 115.066 10.7734C114.624 11.0859 114.253 11.4928 113.953 11.9941C113.66 12.4954 113.442 13.0326 113.299 13.6055C113.156 14.1784 113.084 14.722 113.084 15.2363C113.084 16.1348 113.201 16.9095 113.436 17.5605C113.878 18.8105 114.64 19.6602 115.721 20.1094C116.222 20.3177 116.772 20.4219 117.371 20.4219C118.211 20.4219 118.937 20.2266 119.549 19.8359C120.167 19.4453 120.724 18.7487 121.219 17.7461L121.717 18.1855C120.604 19.8522 119.113 20.6855 117.244 20.6855ZM128.299 20.6855C127.316 20.6855 126.355 20.4967 125.418 20.1191C124.487 19.7415 123.719 19.1589 123.113 18.3711C122.514 17.5768 122.215 16.5645 122.215 15.334C122.215 13.6673 122.827 12.3457 124.051 11.3691C125.125 10.4837 126.398 10.041 127.869 10.041C129.34 10.041 130.499 10.4382 131.346 11.2324C132.199 12.0267 132.713 13.1204 132.889 14.5137L132.908 14.6602H129.988C128.517 14.6602 127.286 15.0378 126.297 15.793C125.424 16.4831 124.965 17.3783 124.92 18.4785C125.714 19.7741 126.886 20.4219 128.436 20.4219C129.262 20.4219 129.952 20.2298 130.506 19.8457C131.059 19.4551 131.629 18.7552 132.215 17.7461L132.771 18.1855C132.316 18.9603 131.674 19.582 130.848 20.0508C130.105 20.474 129.256 20.6855 128.299 20.6855ZM124.676 18.0195C124.832 17.0299 125.317 16.2161 126.131 15.5781C127.153 14.7839 128.439 14.3867 129.988 14.3867H131.443C131.294 13.3385 130.916 12.4206 130.311 11.6328C129.627 10.7409 128.784 10.2949 127.781 10.2949C127.163 10.2949 126.626 10.4512 126.17 10.7637C125.714 11.0762 125.337 11.4798 125.037 11.9746C124.738 12.4694 124.513 13.0065 124.363 13.5859C124.214 14.1589 124.139 14.709 124.139 15.2363C124.139 16.3561 124.318 17.2839 124.676 18.0195ZM136.521 24.7969H134.705V12.3457C134.705 11.8053 134.65 11.4147 134.539 11.1738C134.435 10.9329 134.201 10.7669 133.836 10.6758C134.324 10.3568 134.845 10.1908 135.398 10.1777C136.147 10.1777 136.521 10.6595 136.521 11.623V12.7363C136.671 12.3262 136.876 11.9486 137.137 11.6035C137.866 10.653 138.865 10.1777 140.135 10.1777C141.443 10.1777 142.492 10.7344 143.279 11.8477C143.969 12.8633 144.314 14.0482 144.314 15.4023C144.314 16.8607 143.93 18.0944 143.162 19.1035C142.309 20.2168 141.15 20.7734 139.686 20.7734C139.126 20.7734 138.559 20.6693 137.986 20.4609C137.42 20.2526 136.932 19.9499 136.521 19.5527V24.7969ZM139.09 20.334C139.337 20.334 139.676 20.2852 140.105 20.1875C140.535 20.0833 140.952 19.7448 141.355 19.1719C142.013 18.1367 142.342 16.8607 142.342 15.3438C142.342 14.1198 142.107 13.0293 141.639 12.0723C141.098 11.0762 140.379 10.5781 139.48 10.5781C138.706 10.5781 137.999 10.972 137.361 11.7598C136.932 12.3392 136.652 13.0195 136.521 13.8008V19.1523C136.925 19.6211 137.426 19.9564 138.025 20.1582C138.377 20.2754 138.732 20.334 139.09 20.334ZM149.188 20.5C147.911 20.5 147.039 20.0085 146.57 19.0254C146.349 18.5632 146.238 18.0293 146.238 17.4238V10.4512H145.145V10.1777C145.62 10.1777 145.981 10.0801 146.229 9.88477C146.567 9.61784 146.736 9.25977 146.736 8.81055C146.736 8.31576 146.57 7.90234 146.238 7.57031C146.531 7.42708 146.792 7.35547 147.02 7.35547C147.54 7.35547 147.872 7.62565 148.016 8.16602C148.042 8.27669 148.055 8.39062 148.055 8.50781C148.055 9.23698 147.618 9.79362 146.746 10.1777H150.096V10.4512H148.055V17.4238C148.055 17.8535 148.094 18.2734 148.172 18.6836C148.25 19.0938 148.406 19.4323 148.641 19.6992C148.882 19.9661 149.243 20.0996 149.725 20.0996C150.148 20.0996 150.571 19.9889 150.994 19.7676V20.0898C150.447 20.3633 149.845 20.5 149.188 20.5ZM162.947 20.5H161.131V10.4512H159.021V20.5H157.205V10.4512H155.906V10.1777H157.205C156.704 9.81315 156.421 9.4681 156.355 9.14258C156.297 8.81706 156.268 8.58268 156.268 8.43945C156.268 8.08138 156.355 7.72656 156.531 7.375C156.772 6.88672 157.153 6.47656 157.674 6.14453C158.201 5.80599 158.833 5.63672 159.568 5.63672C160.519 5.63672 161.255 5.73438 161.775 5.92969C162.296 6.125 162.661 6.3724 162.869 6.67188C163.084 6.96484 163.191 7.27083 163.191 7.58984C163.185 7.94141 163.061 8.24414 162.82 8.49805C162.586 8.75195 162.326 8.87891 162.039 8.87891C161.674 8.87891 161.375 8.76497 161.141 8.53711C160.913 8.30924 160.799 8.01628 160.799 7.6582C160.773 7.15039 160.649 6.72721 160.428 6.38867C160.206 6.05013 159.923 5.88086 159.578 5.88086C159.122 5.88086 158.755 6.0013 158.475 6.24219C158.195 6.47656 158.006 6.75 157.908 7.0625C157.817 7.36849 157.771 7.65495 157.771 7.92188C157.771 8.45573 157.908 8.94727 158.182 9.39648C158.383 9.73503 158.663 9.99544 159.021 10.1777H162.947V20.5ZM170.75 20.6367C170.197 20.6367 169.633 20.5326 169.061 20.3242C168.494 20.1159 168.003 19.8132 167.586 19.416V20.5H165.77V8.04883C165.77 7.50846 165.717 7.11784 165.613 6.87695C165.509 6.63607 165.275 6.47005 164.91 6.37891C165.398 6.0599 165.919 5.89388 166.473 5.88086C167.215 5.88086 167.586 6.36263 167.586 7.32617V12.5996C167.736 12.1895 167.941 11.8118 168.201 11.4668C168.93 10.5163 169.933 10.041 171.209 10.041C171.86 10.041 172.452 10.1875 172.986 10.4805C173.52 10.7669 173.969 11.1771 174.334 11.7109C174.705 12.2383 174.972 12.8112 175.135 13.4297C175.304 14.0417 175.389 14.6536 175.389 15.2656C175.389 16.7109 175.005 17.9447 174.236 18.9668C173.383 20.0801 172.221 20.6367 170.75 20.6367ZM170.164 20.1973C170.411 20.1973 170.747 20.1484 171.17 20.0508C171.6 19.9466 172.02 19.6081 172.43 19.0352C173.081 18 173.406 16.737 173.406 15.2461C173.406 14.0026 173.175 12.8991 172.713 11.9355C172.173 10.9395 171.453 10.4414 170.555 10.4414C169.78 10.4414 169.074 10.8353 168.436 11.623C168.006 12.2025 167.723 12.8828 167.586 13.6641V19.0156C167.996 19.4844 168.501 19.8197 169.1 20.0215C169.451 20.1387 169.806 20.1973 170.164 20.1973ZM179.207 20.5H177.391V12.3457C177.391 11.8053 177.339 11.4147 177.234 11.1738C177.13 10.9329 176.896 10.7669 176.531 10.6758C177.02 10.3568 177.537 10.1908 178.084 10.1777C178.833 10.1777 179.207 10.6595 179.207 11.623V12.7852C179.37 12.3099 179.588 11.877 179.861 11.4863C180.135 11.0957 180.467 10.7799 180.857 10.5391C181.255 10.2982 181.707 10.1777 182.215 10.1777C182.898 10.1777 183.455 10.2786 183.885 10.4805C184.314 10.6823 184.624 10.9329 184.812 11.2324C184.982 11.4928 185.066 11.7533 185.066 12.0137C185.066 12.0527 185.06 12.1536 185.047 12.3164C185.034 12.4792 184.91 12.6647 184.676 12.873C184.448 13.0749 184.126 13.1758 183.709 13.1758C183.755 12.9219 183.777 12.6842 183.777 12.4629C183.777 11.9681 183.624 11.5221 183.318 11.125C183.012 10.7214 182.563 10.5195 181.971 10.5195C181.189 10.5195 180.545 10.9199 180.037 11.7207C179.62 12.4368 179.344 13.1823 179.207 13.957V20.5ZM191.502 20.6855C190.519 20.6855 189.559 20.4967 188.621 20.1191C187.69 19.7415 186.922 19.1589 186.316 18.3711C185.717 17.5768 185.418 16.5645 185.418 15.334C185.418 13.6673 186.03 12.3457 187.254 11.3691C188.328 10.4837 189.601 10.041 191.072 10.041C192.544 10.041 193.702 10.4382 194.549 11.2324C195.402 12.0267 195.916 13.1204 196.092 14.5137L196.111 14.6602H193.191C191.72 14.6602 190.49 15.0378 189.5 15.793C188.628 16.4831 188.169 17.3783 188.123 18.4785C188.917 19.7741 190.089 20.4219 191.639 20.4219C192.465 20.4219 193.156 20.2298 193.709 19.8457C194.262 19.4551 194.832 18.7552 195.418 17.7461L195.975 18.1855C195.519 18.9603 194.878 19.582 194.051 20.0508C193.309 20.474 192.459 20.6855 191.502 20.6855ZM187.879 18.0195C188.035 17.0299 188.52 16.2161 189.334 15.5781C190.356 14.7839 191.642 14.3867 193.191 14.3867H194.646C194.497 13.3385 194.119 12.4206 193.514 11.6328C192.83 10.7409 191.987 10.2949 190.984 10.2949C190.366 10.2949 189.829 10.4512 189.373 10.7637C188.917 11.0762 188.54 11.4798 188.24 11.9746C187.941 12.4694 187.716 13.0065 187.566 13.5859C187.417 14.1589 187.342 14.709 187.342 15.2363C187.342 16.3561 187.521 17.2839 187.879 18.0195Z" fill="#2C2C2C"/>
<defs>
<clipPath id="clip0_61_318">
<rect width="56" height="30" fill="white" transform="translate(0.5)"/>
</clipPath>
</defs>
</svg>
