<svg width="514" height="59" viewBox="0 0 514 59" fill="none" xmlns="http://www.w3.org/2000/svg">
<g clip-path="url(#clip0_86_588)">
<path d="M86.531 39.0788C80.4621 56.3775 62.2413 63.3721 46.7212 56.2253C41.1471 53.6576 37.0809 49.3615 33.9811 44.0715C31.2944 39.4877 27.5457 36.2448 22.4735 34.7993C18.2836 33.6105 14.0493 32.5763 9.80808 31.5897C6.55887 30.8336 3.27231 30.2583 0.00442505 29.6021V29.4452C6.22897 29.4452 12.4535 29.4452 18.678 29.4452C23.7269 29.4452 28.5681 30.4271 33.1221 32.7071C35.9605 34.1336 38.3274 36.1045 40.0477 38.8886C39.1 39.4544 39.3964 40.1605 39.8843 40.6931C41.6513 42.626 43.2595 44.8038 45.323 46.3397C51.3919 50.8569 58.2615 51.2944 65.3784 49.7205C66.5455 49.4637 67.7663 49.1166 68.7374 48.4651C70.7983 47.0517 72.7865 45.5312 74.6942 43.9099C76.3859 42.5525 77.678 40.747 78.429 38.6913C78.7254 37.8568 79.2623 37.5477 80.1189 37.5643C81.9069 37.6047 83.6949 37.5643 85.4876 37.5786C86.7551 37.5833 86.9605 37.8544 86.531 39.0788ZM29.5344 31.8369L38.7755 38.1278C36.4343 35.163 33.1011 33.0661 29.5344 31.8369ZM59.1788 57.0384C52.8391 57.0099 47.2323 54.6799 41.9244 51.3752C50.6986 59.8106 67.6169 60.0008 76.4706 51.3229C71.1556 54.7441 65.5465 57.0646 59.1718 57.036L59.1788 57.0384Z" fill="#2C2C2C"/>
<path d="M95.8143 29.0935C89.9228 28.8034 84.5705 26.7659 80.1448 22.5934C79.3932 21.8801 78.9427 21.1193 78.868 20.0423C78.735 18.088 77.6309 16.6592 76.3284 15.3824L75.9713 15.5298L77.8853 21.457C77.2598 21.3951 76.6505 21.5069 76.4965 21.2882C75.8616 20.3823 75.3644 19.3743 74.8182 18.4066L75.2173 18.0785C75.4624 18.4803 75.7075 18.8845 75.9549 19.2863L76.3448 19.0224L73.7188 13.742L73.294 14.1794L71.485 13.4662L72.7594 15.1304L72.5423 15.323C72.1175 14.9402 71.6927 14.5551 71.2632 14.1747C70.7683 13.7325 70.3295 13.2237 69.7646 12.8718C67.043 11.1885 64.1626 9.95461 60.9297 9.74302C60.6963 9.72875 60.2924 9.67645 60.2854 9.60988C60.1897 8.59469 59.3658 8.87285 58.7986 8.68979C58.4904 8.58993 58.2057 8.42588 57.7552 8.21429C57.9053 8.13251 58.0614 8.06257 58.222 8.00507C61.861 7.44398 65.2246 8.39973 68.4738 9.95699C68.6819 10.0669 68.8736 10.2061 69.0434 10.3707C69.8277 11.0839 70.5303 11.9137 71.4033 12.4748C72.1339 12.9503 73.0629 13.0905 73.9032 13.383L74.1483 13.1975C73.9149 12.8171 73.7468 12.3464 73.4223 12.0706C71.9611 10.8272 70.4672 9.62177 68.9547 8.44253C68.4937 8.07807 67.9772 7.79296 67.4258 7.59852C64.333 6.57381 61.1864 5.91763 57.9092 6.33607C57.6525 6.36935 57.209 6.57381 57.209 6.72122C57.1763 7.45349 56.7024 7.36314 56.2333 7.41307C50.7012 8.03598 46.0585 10.4135 42.5525 14.8737C41.7659 15.8746 41.1963 17.0871 40.6851 18.2711C39.3733 21.2691 38.6661 21.7589 35.4239 21.6281C34.5695 21.5925 33.7129 21.5663 32.8562 21.5544C31.4674 21.5378 31.3297 21.3571 31.7498 20.0423C31.8222 19.8046 31.8945 19.5882 31.9832 19.3671C33.339 15.6088 35.4299 12.1699 38.1292 9.25904C40.8285 6.34816 44.08 4.02584 47.6866 2.43284C51.2932 0.839842 55.1798 0.00933456 59.1109 -0.00834656C63.042 -0.0260277 66.9357 0.769484 70.5559 2.32998C76.5222 4.87628 80.9221 9.22472 84.225 14.7881C87.1218 19.6691 91.1996 22.9144 96.6827 24.241C104.047 26.0218 111.414 27.8073 119 29.6284C111.199 29.4739 103.499 29.4715 95.8143 29.0935ZM42.1277 7.6532C53.9854 0.0927563 65.6284 0.487417 77.0007 8.3926C69.3258 -0.00947952 51.999 -1.36227 42.137 7.6532H42.1277ZM81.0458 21.3833C83.1986 23.7902 85.9238 25.5916 88.9588 26.6137L81.0458 21.3833Z" fill="#2C2C2C"/>
<path d="M59.1324 42.6759C51.9734 42.7329 45.9815 36.687 45.9068 29.331C45.8321 21.975 51.7119 15.8458 58.8943 15.7792C66.17 15.715 72.1992 21.723 72.2599 29.0932C72.3206 36.4635 66.3731 42.6188 59.1324 42.6759ZM58.8523 17.1439C52.2978 17.3484 47.0902 22.8499 47.2513 29.4047C47.417 36.0854 52.8067 41.4229 59.2304 41.266C60.7998 41.2371 62.348 40.8919 63.7858 40.2504C65.2235 39.609 66.5224 38.6839 67.6074 37.5286C68.6924 36.3733 69.5421 35.0107 70.1074 33.5192C70.6728 32.0277 70.9426 30.437 70.9014 28.8388C70.7263 22.3007 65.1896 16.9466 58.8523 17.1439Z" fill="#2C2C2C"/>
<path d="M69.4309 47.1578C69.4192 47.0295 69.4052 46.9034 69.3935 46.7774C69.1741 46.7774 68.9267 46.7037 68.7353 46.7774C63.0749 49.3404 57.272 49.2881 51.4108 47.6975C50.2437 47.3813 49.0766 46.9534 48.5468 45.5578C48.3764 45.1179 47.6341 44.9135 47.1626 44.5878C46.2873 43.9791 45.3326 43.4537 44.5693 42.7238C43.4185 41.6183 42.4055 40.3677 41.2897 39.129L40.2837 39.4833C43.7196 44.8802 48.4721 48.3846 54.7931 49.3095C59.8653 50.0703 64.7998 49.445 69.4309 47.1578Z" fill="#2C2C2C"/>
<path d="M77.5749 37.5623C76.9657 37.6883 76.5198 37.6669 76.2631 37.8785C76.116 38.0021 76.3214 38.5133 76.2887 38.8295C76.2561 39.1457 76.2257 39.6141 76.025 39.8851C75.103 41.1357 74.1226 42.3458 73.2053 43.6035C75.229 42.2055 76.8186 40.4533 77.5749 37.5623Z" fill="#2C2C2C"/>
<path d="M48.0846 11.8779C45.4609 12.9335 43.3765 15.135 43.3555 16.8706C44.6906 16.4973 44.5506 14.9971 45.3792 14.3267C46.2499 13.6253 47.0505 12.8217 48.0846 11.8779Z" fill="#2C2C2C"/>
</g>
<path d="M154.657 42.7856C151.61 42.7856 148.929 42.3169 146.615 41.3794C144.315 40.4419 142.389 39.1895 140.836 37.6221C139.283 36.04 138.111 34.2676 137.32 32.3047C136.485 30.2686 136.068 28.1152 136.068 25.8447C136.068 23.8379 136.427 21.8604 137.145 19.9121C137.862 17.9639 138.983 16.1841 140.506 14.5728C142.03 12.9614 143.949 11.6797 146.263 10.7275C148.578 9.76074 151.288 9.27734 154.393 9.27734C158.451 9.27734 161.38 10.332 163.182 12.4414C163.958 13.3496 164.347 14.3604 164.347 15.4736C164.347 16.5137 163.973 17.4512 163.226 18.2861C162.142 19.3994 160.626 19.9561 158.678 19.9561C157.945 19.9561 157.213 19.8462 156.48 19.6265C155.25 19.2749 153.624 18.623 151.603 17.6709L149.713 16.814C147.457 15.7446 145.465 15.21 143.736 15.21H143.473C141.495 18.1104 140.506 21.582 140.506 25.625C140.506 27.8223 140.851 29.9683 141.539 32.063C142.169 33.9673 143.077 35.6812 144.264 37.2046C145.465 38.7134 146.93 39.9219 148.658 40.8301C150.401 41.7236 152.401 42.1704 154.657 42.1704C157.059 42.1704 159.396 41.6064 161.666 40.4785C163.951 39.3506 165.775 37.7319 167.137 35.6226V30.459C167.137 28.877 166.874 27.7344 166.346 27.0312C165.892 26.5332 165.313 26.1816 164.61 25.9766C163.922 25.7715 163.065 25.6689 162.04 25.6689H148.834V25.0537H164.918C166.354 25.0537 167.533 25.1489 168.456 25.3394C169.261 25.5005 169.979 25.8301 170.609 26.3281C171.166 26.8701 171.51 27.5146 171.642 28.2617C171.788 29.0088 171.861 29.7412 171.861 30.459V42.478H167.137V36.7432C165.672 38.6914 163.812 40.1855 161.556 41.2256C159.315 42.2656 157.015 42.7856 154.657 42.7856ZM158.678 19.3408C160.45 19.3408 161.812 18.8501 162.765 17.8687C163.409 17.1655 163.731 16.3745 163.731 15.4956C163.731 14.5288 163.38 13.6279 162.677 12.793C161.021 10.8594 158.26 9.89258 154.393 9.89258C152.943 9.89258 151.595 10.0317 150.35 10.3101C149.12 10.5884 147.97 11.0718 146.9 11.7603C145.846 12.4487 144.857 13.3936 143.934 14.5947C144.344 14.5947 144.762 14.6313 145.187 14.7046C146.842 15.0122 148.438 15.5249 149.977 16.2427L151.844 17.0996C153.836 18.0518 155.418 18.6963 156.59 19.0332C157.293 19.2383 157.989 19.3408 158.678 19.3408ZM193.9 42.5C192.215 42.5 191.373 41.416 191.373 39.248V35.0513C190.919 36.5601 190.165 37.9224 189.11 39.1382C187.074 41.3647 184.605 42.478 181.705 42.478C179.786 42.478 178.204 41.8994 176.959 40.7422C175.597 39.4092 174.916 37.7905 174.916 35.8862C174.916 34.6265 175.245 33.4399 175.904 32.3267C176.842 30.8325 178.167 29.8364 179.881 29.3384C182.24 28.6792 184.305 28.2104 186.078 27.9321C186.957 27.7856 187.857 27.5732 188.78 27.2949C189.718 27.0166 190.443 26.5698 190.956 25.9546C191.439 25.2515 191.681 24.4897 191.681 23.6694C191.681 22.6147 191.3 21.7139 190.538 20.9668C189.718 20.249 188.751 19.8901 187.638 19.8901C186.773 19.8901 186.114 20.0806 185.66 20.4614C184.913 21.0913 184.54 21.9409 184.54 23.0103C184.54 23.8159 184.759 24.541 185.199 25.1855C184.232 25.1855 183.485 24.9805 182.958 24.5703C182.342 24.1016 182.035 23.501 182.035 22.7686C182.035 22.2998 182.21 21.8018 182.562 21.2744C182.914 20.7471 183.521 20.2856 184.386 19.8901C185.265 19.48 186.393 19.2749 187.77 19.2749C189.879 19.2749 191.534 19.6558 192.735 20.4175C193.863 21.1353 194.464 22.1606 194.537 23.4937C194.537 24.3872 194.251 25.2002 193.68 25.9326C192.918 26.8408 191.944 27.4121 190.758 27.6465C188.897 27.998 186.715 28.5034 184.21 29.1626C182.511 29.6167 181.178 30.5396 180.211 31.9312C179.376 33.2349 178.958 34.6777 178.958 36.2598C178.958 37.6514 179.361 38.9185 180.167 40.061C180.958 41.0864 181.976 41.5991 183.221 41.5991C184.012 41.5991 184.818 41.4087 185.638 41.0278C188.158 39.812 189.857 37.8052 190.736 35.0073C191.161 33.6304 191.373 32.1802 191.373 30.6567V29.3604C193.014 29.1406 194.376 28.3862 195.46 27.0972V37.6221C195.46 38.8232 195.577 39.7021 195.812 40.2588C196.046 40.8008 196.581 41.167 197.416 41.3574C196.317 42.0752 195.145 42.4561 193.9 42.5ZM204.93 42.5H200.843V24.1528C200.843 22.937 200.726 22.0581 200.492 21.5161C200.257 20.9741 199.73 20.6006 198.91 20.3955C200.008 19.6777 201.173 19.3042 202.403 19.2749C204.088 19.2749 204.93 20.3589 204.93 22.5269V25.1416C205.296 24.0723 205.787 23.0981 206.402 22.2192C207.018 21.3403 207.765 20.6299 208.644 20.0879C209.537 19.5459 210.555 19.2749 211.698 19.2749C213.236 19.2749 214.488 19.502 215.455 19.9561C216.422 20.4102 217.118 20.9741 217.542 21.6479C217.923 22.2339 218.114 22.8198 218.114 23.4058C218.114 23.4937 218.099 23.7207 218.07 24.0869C218.041 24.4531 217.762 24.8706 217.235 25.3394C216.722 25.7935 215.997 26.0205 215.06 26.0205C215.162 25.4492 215.213 24.9146 215.213 24.4165C215.213 23.3032 214.869 22.2998 214.181 21.4062C213.492 20.498 212.481 20.0439 211.148 20.0439C209.391 20.0439 207.94 20.9448 206.798 22.7466C205.86 24.3579 205.238 26.0352 204.93 27.7783V42.5ZM230.88 55.7495C228.858 55.7495 227.225 55.4858 225.98 54.9585C224.75 54.4458 223.863 53.8086 223.321 53.0469C222.838 52.3877 222.596 51.7212 222.596 51.0474C222.596 50.9595 222.618 50.7031 222.662 50.2783C222.706 49.8535 223.043 49.3774 223.673 48.8501C224.303 48.3374 225.167 48.0811 226.266 48.0811C226.104 48.6816 226.024 49.2456 226.024 49.7729C226.024 51.0767 226.588 52.2632 227.716 53.3325C228.844 54.4165 230.602 54.9585 232.989 54.9585C235.392 54.9585 237.647 54.1968 239.757 52.6733C241.573 51.3403 242.694 49.5679 243.119 47.356C243.177 46.9897 243.207 46.6455 243.207 46.3232C243.207 45.1807 242.796 44.1919 241.976 43.3569C241.156 42.522 239.815 42.1045 237.955 42.1045C236.285 42.1045 233.78 42.7124 230.44 43.9282C227.159 45.1587 224.691 45.7739 223.036 45.7739C221.527 45.7739 220.326 45.4736 219.432 44.873C217.967 43.9062 217.235 42.5586 217.235 40.8301C217.235 40.5518 217.286 40.1123 217.389 39.5117C217.506 38.8965 217.872 38.23 218.487 37.5122C219.352 36.5015 220.553 35.9961 222.091 35.9961C222.369 35.9961 222.64 36.0107 222.904 36.04C222.669 35.835 222.442 35.6079 222.223 35.3589C220.553 33.4546 219.71 31.228 219.696 28.6792C219.696 26.145 220.531 23.9185 222.201 21.9995C224.076 19.978 226.566 18.9673 229.671 18.9673C231.297 18.9673 232.843 19.2822 234.308 19.9121C233.736 18.96 233.451 18.0298 233.451 17.1216C233.451 16.6821 233.583 16.0156 233.846 15.1221C234.125 14.2285 235.106 13.5693 236.791 13.1445C237.171 13.0859 237.552 13.0566 237.933 13.0566C239.002 13.0566 240.035 13.2983 241.031 13.7817L241.229 13.8696L241.009 16.8359L240.57 16.5283C239.442 15.7373 238.285 15.3418 237.098 15.3418C236.366 15.3418 235.758 15.5103 235.274 15.8472C234.586 16.3159 234.242 16.9824 234.242 17.8467C234.242 17.8613 234.242 18.0957 234.242 18.5498C234.256 19.0039 234.806 19.7729 235.89 20.8569C236.344 21.1938 236.769 21.5747 237.164 21.9995C238.819 23.9185 239.654 26.145 239.669 28.6792C239.654 31.228 238.805 33.4546 237.12 35.3589C235.333 37.2925 233.004 38.3032 230.133 38.3911V38.4131H229.232V38.3911C227.372 38.3325 225.665 37.8418 224.112 36.9189C223.482 36.6992 222.831 36.5894 222.157 36.5894C220.516 36.5894 219.33 37.2192 218.597 38.479C218.377 38.8599 218.268 39.2407 218.268 39.6216C218.268 40.1636 218.487 40.7202 218.927 41.2915C219.791 42.229 221.161 42.6978 223.036 42.6978C224.5 42.6978 226.837 42.0972 230.045 40.896C231.305 40.4272 232.586 40.0024 233.89 39.6216C235.282 39.2407 236.505 39.0503 237.56 39.0503C239.054 39.0503 240.299 39.4678 241.295 40.3027C242.306 41.1377 243.016 42.1924 243.426 43.4668C243.705 44.3018 243.844 45.166 243.844 46.0596C243.844 46.5137 243.807 46.9751 243.734 47.4438C243.28 49.8169 242.071 51.7285 240.108 53.1787C237.735 54.8926 234.659 55.7495 230.88 55.7495ZM229.737 37.7979C233.59 37.6514 235.516 34.5239 235.516 28.4155C235.516 22.5269 233.568 19.5825 229.671 19.5825C227.43 19.5825 225.848 20.5713 224.925 22.5488C224.193 24.0869 223.827 26.0718 223.827 28.5034C223.827 34.5239 225.76 37.6221 229.627 37.7979H229.737ZM262.103 42.5C260.418 42.5 259.576 41.416 259.576 39.248V35.0513C259.122 36.5601 258.368 37.9224 257.313 39.1382C255.277 41.3647 252.809 42.478 249.908 42.478C247.989 42.478 246.407 41.8994 245.162 40.7422C243.8 39.4092 243.119 37.7905 243.119 35.8862C243.119 34.6265 243.448 33.4399 244.107 32.3267C245.045 30.8325 246.371 29.8364 248.084 29.3384C250.443 28.6792 252.508 28.2104 254.281 27.9321C255.16 27.7856 256.061 27.5732 256.983 27.2949C257.921 27.0166 258.646 26.5698 259.159 25.9546C259.642 25.2515 259.884 24.4897 259.884 23.6694C259.884 22.6147 259.503 21.7139 258.741 20.9668C257.921 20.249 256.954 19.8901 255.841 19.8901C254.977 19.8901 254.317 20.0806 253.863 20.4614C253.116 21.0913 252.743 21.9409 252.743 23.0103C252.743 23.8159 252.962 24.541 253.402 25.1855C252.435 25.1855 251.688 24.9805 251.161 24.5703C250.545 24.1016 250.238 23.501 250.238 22.7686C250.238 22.2998 250.414 21.8018 250.765 21.2744C251.117 20.7471 251.725 20.2856 252.589 19.8901C253.468 19.48 254.596 19.2749 255.973 19.2749C258.082 19.2749 259.737 19.6558 260.938 20.4175C262.066 21.1353 262.667 22.1606 262.74 23.4937C262.74 24.3872 262.455 25.2002 261.883 25.9326C261.122 26.8408 260.147 27.4121 258.961 27.6465C257.101 27.998 254.918 28.5034 252.413 29.1626C250.714 29.6167 249.381 30.5396 248.414 31.9312C247.579 33.2349 247.162 34.6777 247.162 36.2598C247.162 37.6514 247.564 38.9185 248.37 40.061C249.161 41.0864 250.179 41.5991 251.424 41.5991C252.215 41.5991 253.021 41.4087 253.841 41.0278C256.361 39.812 258.06 37.8052 258.939 35.0073C259.364 33.6304 259.576 32.1802 259.576 30.6567V29.3604C261.217 29.1406 262.579 28.3862 263.663 27.0972V37.6221C263.663 38.8232 263.78 39.7021 264.015 40.2588C264.249 40.8008 264.784 41.167 265.619 41.3574C264.52 42.0752 263.348 42.4561 262.103 42.5ZM289.085 42.5H284.999V26.8335C284.999 24.7681 284.735 23.2153 284.208 22.1753C283.49 20.7837 282.135 20.0879 280.143 20.0879C279.249 20.0879 278.348 20.3149 277.44 20.769C276.546 21.2231 275.741 21.9116 275.023 22.8345C274.056 24.1382 273.426 25.6689 273.133 27.4268V42.5H269.046V24.1528C269.046 22.937 268.929 22.0581 268.695 21.5161C268.46 20.9741 267.933 20.6006 267.113 20.3955C268.211 19.6777 269.376 19.3042 270.606 19.2749C272.291 19.2749 273.133 20.3589 273.133 22.5269V25.0317C273.47 24.1089 273.932 23.2593 274.518 22.4829C276.158 20.3442 278.407 19.2749 281.263 19.2749C282.699 19.2749 284.01 19.5093 285.196 19.978C286.383 20.4468 287.328 21.2085 288.031 22.2632C288.734 23.3032 289.085 24.6875 289.085 26.416V42.5ZM301.126 42.5C298.255 42.5 296.292 41.394 295.238 39.1821C294.74 38.1421 294.491 36.9409 294.491 35.5786V19.8901H292.03V19.2749C293.099 19.2749 293.912 19.0552 294.469 18.6157C295.23 18.0151 295.611 17.2095 295.611 16.1987C295.611 15.0854 295.238 14.1553 294.491 13.4082C295.15 13.0859 295.736 12.9248 296.249 12.9248C297.42 12.9248 298.167 13.5327 298.49 14.7485C298.548 14.9976 298.578 15.2539 298.578 15.5176C298.578 17.1582 297.596 18.4106 295.633 19.2749H303.17V19.8901H298.578V35.5786C298.578 36.5454 298.666 37.4902 298.841 38.4131C299.017 39.3359 299.369 40.0977 299.896 40.6982C300.438 41.2988 301.251 41.5991 302.335 41.5991C303.287 41.5991 304.239 41.3501 305.191 40.8521V41.5771C303.961 42.1924 302.606 42.5 301.126 42.5ZM326.087 42.5H322V37.5122C321.708 38.1421 321.356 38.728 320.946 39.27C319.305 41.4233 317.057 42.5 314.2 42.5C312.765 42.5 311.454 42.2656 310.267 41.7969C309.081 41.3135 308.136 40.5518 307.433 39.5117C306.729 38.457 306.378 37.0654 306.378 35.3369V24.1528C306.378 22.937 306.253 22.0581 306.004 21.5161C305.77 20.9741 305.243 20.6006 304.422 20.3955C305.521 19.6777 306.693 19.3042 307.938 19.2749C309.623 19.2749 310.465 20.3589 310.465 22.5269V34.9414C310.465 36.9922 310.729 38.5376 311.256 39.5776C311.974 40.9839 313.329 41.687 315.321 41.687C316.214 41.687 317.108 41.46 318.001 41.0059C318.91 40.5371 319.715 39.8413 320.418 38.9185C321.122 37.9956 321.649 36.9409 322 35.7544V24.1528C322 22.937 321.883 22.0581 321.649 21.5161C321.415 20.9741 320.887 20.6006 320.067 20.3955C321.166 19.6777 322.337 19.3042 323.583 19.2749C325.252 19.2749 326.087 20.3589 326.087 22.5269V42.5ZM348.631 42.5C346.947 42.5 346.104 41.416 346.104 39.248V35.0513C345.65 36.5601 344.896 37.9224 343.841 39.1382C341.805 41.3647 339.337 42.478 336.437 42.478C334.518 42.478 332.936 41.8994 331.69 40.7422C330.328 39.4092 329.647 37.7905 329.647 35.8862C329.647 34.6265 329.977 33.4399 330.636 32.3267C331.573 30.8325 332.899 29.8364 334.613 29.3384C336.971 28.6792 339.037 28.2104 340.809 27.9321C341.688 27.7856 342.589 27.5732 343.512 27.2949C344.449 27.0166 345.174 26.5698 345.687 25.9546C346.17 25.2515 346.412 24.4897 346.412 23.6694C346.412 22.6147 346.031 21.7139 345.27 20.9668C344.449 20.249 343.482 19.8901 342.369 19.8901C341.505 19.8901 340.846 20.0806 340.392 20.4614C339.645 21.0913 339.271 21.9409 339.271 23.0103C339.271 23.8159 339.491 24.541 339.93 25.1855C338.963 25.1855 338.216 24.9805 337.689 24.5703C337.074 24.1016 336.766 23.501 336.766 22.7686C336.766 22.2998 336.942 21.8018 337.293 21.2744C337.645 20.7471 338.253 20.2856 339.117 19.8901C339.996 19.48 341.124 19.2749 342.501 19.2749C344.61 19.2749 346.266 19.6558 347.467 20.4175C348.595 21.1353 349.195 22.1606 349.269 23.4937C349.269 24.3872 348.983 25.2002 348.412 25.9326C347.65 26.8408 346.676 27.4121 345.489 27.6465C343.629 27.998 341.446 28.5034 338.941 29.1626C337.242 29.6167 335.909 30.5396 334.942 31.9312C334.107 33.2349 333.69 34.6777 333.69 36.2598C333.69 37.6514 334.093 38.9185 334.898 40.061C335.689 41.0864 336.708 41.5991 337.953 41.5991C338.744 41.5991 339.549 41.4087 340.37 41.0278C342.889 39.812 344.588 37.8052 345.467 35.0073C345.892 33.6304 346.104 32.1802 346.104 30.6567V29.3604C347.745 29.1406 349.107 28.3862 350.191 27.0972V37.6221C350.191 38.8232 350.309 39.7021 350.543 40.2588C350.777 40.8008 351.312 41.167 352.147 41.3574C351.048 42.0752 349.876 42.4561 348.631 42.5ZM383.59 27.9102C385.157 25.7861 385.941 23.3691 385.941 20.6592C385.941 17.9053 385.179 15.5249 383.656 13.5181C381.927 11.3354 379.657 10.2368 376.844 10.2222C374.559 10.3687 372.435 11.0425 370.472 12.2437V26.3062C371.292 25.354 372.508 24.8779 374.12 24.8779C375.248 24.8779 376.991 25.3906 379.349 26.416C380.96 27.1484 382.374 27.6465 383.59 27.9102ZM370.472 42.478H366.385V9.58496H370.472V11.5186C371.542 10.8887 372.691 10.4126 373.922 10.0903C375.167 9.75342 376.383 9.58496 377.569 9.58496C381.48 9.58496 384.667 10.7642 387.127 13.1226C389.251 15.2759 390.35 17.8687 390.423 20.9009C390.423 23.9478 389.347 26.5479 387.193 28.7012C384.703 31.0596 381.393 32.2388 377.262 32.2388C373.995 32.2388 371.732 31.4038 370.472 29.7339V42.478ZM376.053 31.4697C376.727 31.4697 377.738 31.3159 379.085 31.0083C380.448 30.686 381.795 29.8291 383.128 28.4375C382 28.1592 380.667 27.6758 379.129 26.9873L377.108 26.1743C375.892 25.7202 374.896 25.4932 374.12 25.4932C372.86 25.4932 371.878 25.8154 371.175 26.46C370.721 26.8994 370.494 27.3975 370.494 27.9541C370.494 29.0527 371.139 29.9316 372.428 30.5908C373.585 31.1768 374.793 31.4697 376.053 31.4697ZM398.597 42.5H394.51V24.1528C394.51 22.937 394.393 22.0581 394.159 21.5161C393.924 20.9741 393.397 20.6006 392.577 20.3955C393.675 19.6777 394.84 19.3042 396.07 19.2749C397.755 19.2749 398.597 20.3589 398.597 22.5269V25.1416C398.963 24.0723 399.454 23.0981 400.069 22.2192C400.685 21.3403 401.432 20.6299 402.311 20.0879C403.204 19.5459 404.222 19.2749 405.365 19.2749C406.903 19.2749 408.155 19.502 409.122 19.9561C410.089 20.4102 410.785 20.9741 411.209 21.6479C411.59 22.2339 411.781 22.8198 411.781 23.4058C411.781 23.4937 411.766 23.7207 411.737 24.0869C411.708 24.4531 411.429 24.8706 410.902 25.3394C410.389 25.7935 409.664 26.0205 408.727 26.0205C408.829 25.4492 408.88 24.9146 408.88 24.4165C408.88 23.3032 408.536 22.2998 407.848 21.4062C407.159 20.498 406.148 20.0439 404.815 20.0439C403.058 20.0439 401.607 20.9448 400.465 22.7466C399.527 24.3579 398.905 26.0352 398.597 27.7783V42.5ZM425.294 42.8076H424.305V42.7856C420.76 42.6685 417.882 41.4307 415.67 39.0723C413.604 36.7285 412.572 33.9966 412.572 30.8765C412.572 27.771 413.59 25.0391 415.626 22.6807C417.94 20.2051 421.002 18.9673 424.811 18.9673C428.604 18.9673 431.659 20.2051 433.973 22.6807C436.009 25.0391 437.035 27.771 437.049 30.8765C437.035 33.9966 435.995 36.7285 433.929 39.0723C431.717 41.4307 428.839 42.6685 425.294 42.7856V42.8076ZM424.811 42.1924C426.744 42.1338 428.312 41.6284 429.513 40.6763C430.729 39.7095 431.615 38.3765 432.171 36.6772C432.728 34.978 433.006 33.0225 433.006 30.8105C433.006 28.6865 432.706 26.7749 432.105 25.0757C431.505 23.3765 430.597 22.0361 429.381 21.0547C428.165 20.0732 426.642 19.5825 424.811 19.5825C422.936 19.5825 421.39 20.0439 420.174 20.9668C418.958 21.875 418.058 23.1714 417.472 24.856C416.886 26.5405 416.593 28.5181 416.593 30.7886C416.593 32.9419 416.871 34.8755 417.428 36.5894C417.999 38.2886 418.893 39.6362 420.108 40.6323C421.324 41.6138 422.892 42.1338 424.811 42.1924ZM443.399 16.3525C442.462 16.3525 441.759 16.0815 441.29 15.5396C440.836 14.9829 440.609 14.353 440.609 13.6499C440.609 12.9321 440.843 12.3022 441.312 11.7603C441.781 11.2036 442.477 10.9253 443.399 10.9253C444.322 10.9253 445.018 11.2036 445.487 11.7603C445.956 12.3022 446.19 12.9321 446.19 13.6499C446.19 14.353 445.956 14.9829 445.487 15.5396C445.033 16.0815 444.337 16.3525 443.399 16.3525ZM437.291 50.6958C435.812 50.6958 434.457 50.3882 433.226 49.7729V49.0479C434.178 49.5459 435.13 49.7949 436.083 49.7949C437.152 49.7949 438.053 49.4946 438.785 48.894C439.532 48.2935 440.089 47.5317 440.455 46.6089C440.836 45.686 441.026 44.7412 441.026 43.7744V19.2749H445.113V43.7744C445.113 45.1367 444.762 46.3379 444.059 47.3779C443.37 48.418 442.433 49.231 441.246 49.8169C440.074 50.4028 438.756 50.6958 437.291 50.6958ZM463.175 42.9175C460.963 42.9175 458.802 42.4927 456.693 41.6431C454.598 40.7935 452.87 39.4824 451.507 37.71C450.16 35.9229 449.486 33.645 449.486 30.8765C449.486 27.1265 450.863 24.1528 453.617 21.9556C456.034 19.9634 458.897 18.9673 462.208 18.9673C465.519 18.9673 468.126 19.8608 470.03 21.6479C471.949 23.4351 473.106 25.896 473.502 29.0308L473.546 29.3604H466.976C463.666 29.3604 460.897 30.21 458.67 31.9092C456.708 33.4619 455.675 35.4761 455.572 37.9517C457.359 40.8667 459.996 42.3242 463.482 42.3242C465.343 42.3242 466.896 41.8921 468.141 41.0278C469.386 40.1489 470.667 38.5742 471.986 36.3037L473.238 37.2925C472.213 39.0356 470.77 40.4346 468.91 41.4893C467.24 42.4414 465.328 42.9175 463.175 42.9175ZM455.023 36.9189C455.375 34.6924 456.466 32.8613 458.297 31.4258C460.597 29.6387 463.49 28.7451 466.976 28.7451H470.25C469.913 26.3867 469.063 24.3213 467.701 22.5488C466.163 20.542 464.266 19.5386 462.01 19.5386C460.619 19.5386 459.41 19.8901 458.385 20.5933C457.359 21.2964 456.51 22.2046 455.836 23.3179C455.162 24.4312 454.657 25.6396 454.32 26.9434C453.983 28.2324 453.814 29.4702 453.814 30.6567C453.814 33.1763 454.217 35.2637 455.023 36.9189ZM489.63 42.9175C487.403 42.9175 485.243 42.4927 483.148 41.6431C481.053 40.7935 479.332 39.4824 477.984 37.71C476.651 35.9229 475.97 33.645 475.941 30.8765C475.97 28.5767 476.534 26.5332 477.633 24.7461C478.746 22.959 480.226 21.5527 482.071 20.5273C483.932 19.4873 485.99 18.9673 488.246 18.9673C490.194 18.9673 491.769 19.2163 492.97 19.7144C494.171 20.2124 495.035 20.8203 495.562 21.5381C496.031 22.168 496.266 22.8052 496.266 23.4497C496.266 23.5376 496.236 23.7866 496.178 24.1968C496.134 24.5923 495.804 25.0391 495.189 25.5371C494.574 26.0352 493.724 26.2842 492.64 26.2842C492.962 25.5078 493.124 24.7388 493.124 23.9771C493.124 23.6987 493.065 23.23 492.948 22.5708C492.831 21.9116 492.369 21.2451 491.563 20.5713C490.772 19.8828 489.681 19.5386 488.29 19.5386C486.927 19.5386 485.741 19.8975 484.73 20.6152C483.734 21.3184 482.899 22.2339 482.225 23.3618C481.566 24.4897 481.075 25.6982 480.753 26.9873C480.431 28.2764 480.27 29.4995 480.27 30.6567C480.27 32.6782 480.533 34.4214 481.061 35.8862C482.057 38.6987 483.771 40.6104 486.202 41.6211C487.33 42.0898 488.568 42.3242 489.916 42.3242C491.805 42.3242 493.438 41.8848 494.815 41.0059C496.207 40.127 497.459 38.5596 498.573 36.3037L499.693 37.2925C497.188 41.0425 493.834 42.9175 489.63 42.9175ZM509.12 42.5C506.249 42.5 504.286 41.394 503.231 39.1821C502.733 38.1421 502.484 36.9409 502.484 35.5786V19.8901H500.023V19.2749C501.092 19.2749 501.905 19.0552 502.462 18.6157C503.224 18.0151 503.604 17.2095 503.604 16.1987C503.604 15.0854 503.231 14.1553 502.484 13.4082C503.143 13.0859 503.729 12.9248 504.242 12.9248C505.414 12.9248 506.161 13.5327 506.483 14.7485C506.542 14.9976 506.571 15.2539 506.571 15.5176C506.571 17.1582 505.589 18.4106 503.626 19.2749H511.163V19.8901H506.571V35.5786C506.571 36.5454 506.659 37.4902 506.834 38.4131C507.01 39.3359 507.362 40.0977 507.889 40.6982C508.431 41.2988 509.244 41.5991 510.328 41.5991C511.28 41.5991 512.232 41.3501 513.185 40.8521V41.5771C511.954 42.1924 510.599 42.5 509.12 42.5Z" fill="#2C2C2C"/>
<defs>
<clipPath id="clip0_86_588">
<rect width="119" height="59" fill="white" transform="matrix(1 0 0 -1 0 59)"/>
</clipPath>
</defs>
</svg>
